<svg width="1716" height="278" viewBox="0 0 1716 278" fill="none" xmlns="http://www.w3.org/2000/svg">
    <g opacity="0.5">
        <path
            d="M1501.58 358.517L1501.58 359.017L1502.08 359.017L1597.15 359.017L1597.65 359.017L1597.65 358.517C1597.65 256.299 1514.78 173.435 1412.57 173.435C1310.35 173.435 1227.49 256.299 1227.49 358.517L1227.49 359.017L1227.99 359.017L1323.05 359.017L1323.55 359.017L1323.55 358.517C1323.55 309.353 1363.4 269.499 1412.57 269.499C1461.73 269.499 1501.58 309.353 1501.58 358.517Z"
            stroke="url(#paint0_linear_86_2268)" />
        <path
            d="M1501.59 358.517L1501.59 359.017L1502.09 359.017L1597.15 359.017L1597.65 359.017L1597.65 358.517C1597.65 256.299 1514.78 173.435 1412.57 173.435C1310.35 173.435 1227.49 256.299 1227.49 358.517L1227.49 359.017L1227.99 359.017L1323.05 359.017L1323.55 359.017L1323.55 358.517C1323.55 309.353 1363.4 269.499 1412.57 269.499C1461.73 269.499 1501.59 309.353 1501.59 358.517Z"
            stroke="url(#paint1_linear_86_2268)" />
        <path
            d="M1558.74 358.427L1558.74 358.927L1559.24 358.927L1714.38 358.927L1714.88 358.927L1714.88 358.427C1714.88 191.861 1579.79 56.8333 1413.14 56.8333C1246.5 56.8333 1111.41 191.861 1111.41 358.427L1111.41 358.927L1111.91 358.927L1267.05 358.927L1267.55 358.927L1267.55 358.427C1267.55 278.057 1332.74 212.903 1413.14 212.903C1493.55 212.903 1558.74 278.057 1558.74 358.427Z"
            stroke="url(#paint2_linear_86_2268)" />
        <path
            d="M1558.74 358.427L1558.74 358.927L1559.24 358.927L1714.38 358.927L1714.88 358.927L1714.88 358.427C1714.88 191.861 1579.79 56.8333 1413.14 56.8333C1246.5 56.8333 1111.41 191.861 1111.41 358.427L1111.41 358.927L1111.91 358.927L1267.05 358.927L1267.55 358.927L1267.55 358.427C1267.55 278.057 1332.74 212.903 1413.14 212.903C1493.55 212.903 1558.74 278.057 1558.74 358.427Z"
            stroke="url(#paint3_linear_86_2268)" />
        <path opacity="0.3"
            d="M551.825 421.427L551.825 421.927L552.325 421.927L707.467 421.927L707.967 421.927L707.967 421.427C707.967 254.861 572.876 119.833 406.233 119.833C239.591 119.833 104.5 254.861 104.5 421.427L104.5 421.927L105 421.927L260.141 421.927L260.641 421.927L260.641 421.427C260.641 341.056 325.825 275.903 406.233 275.903C486.642 275.903 551.825 341.057 551.825 421.427Z"
            stroke="url(#paint4_linear_86_2268)" />
        <path
            d="M1501.58 358.517L1501.58 359.017L1502.08 359.017L1597.15 359.017L1597.65 359.017L1597.65 358.517C1597.65 256.299 1514.78 173.435 1412.57 173.435C1310.35 173.435 1227.49 256.299 1227.49 358.517L1227.49 359.017L1227.99 359.017L1323.05 359.017L1323.55 359.017L1323.55 358.517C1323.55 309.353 1363.4 269.499 1412.57 269.499C1461.73 269.499 1501.58 309.353 1501.58 358.517Z"
            stroke="url(#paint5_linear_86_2268)" />
        <path
            d="M1501.59 358.517L1501.59 359.017L1502.09 359.017L1597.15 359.017L1597.65 359.017L1597.65 358.517C1597.65 256.299 1514.78 173.435 1412.57 173.435C1310.35 173.435 1227.49 256.299 1227.49 358.517L1227.49 359.017L1227.99 359.017L1323.05 359.017L1323.55 359.017L1323.55 358.517C1323.55 309.353 1363.4 269.499 1412.57 269.499C1461.73 269.499 1501.59 309.353 1501.59 358.517Z"
            stroke="url(#paint6_linear_86_2268)" />
        <path opacity="0.6"
            d="M1457.62 358.427L1457.62 358.927L1458.12 358.927L1613.19 358.927L1613.69 358.927L1613.69 358.427C1613.69 191.861 1478.66 56.8333 1312.09 56.8333C1145.53 56.8333 1010.5 191.861 1010.5 358.427L1010.5 358.927L1011 358.927L1166.07 358.927L1166.57 358.927L1166.57 358.427C1166.57 278.056 1231.72 212.903 1312.09 212.903C1392.46 212.903 1457.62 278.056 1457.62 358.427Z"
            stroke="url(#paint7_linear_86_2268)" />
        <path opacity="0.2"
            d="M420.618 421.427L420.618 421.927L421.118 421.927L576.187 421.927L576.687 421.927L576.688 421.427C576.688 254.861 441.659 119.833 275.094 119.833C108.528 119.833 -26.5002 254.861 -26.5002 421.427L-26.5002 421.927L-26.0002 421.927L129.07 421.927L129.57 421.927L129.57 421.427C129.57 341.056 194.723 275.903 275.094 275.903C355.464 275.903 420.618 341.056 420.618 421.427Z"
            stroke="url(#paint8_linear_86_2268)" />
        <path opacity="0.5"
            d="M1501.59 358.517L1501.59 359.017L1502.09 359.017L1597.15 359.017L1597.65 359.017L1597.65 358.517C1597.65 256.299 1514.78 173.435 1412.57 173.435C1310.35 173.435 1227.49 256.299 1227.49 358.517L1227.49 359.017L1227.99 359.017L1323.05 359.017L1323.55 359.017L1323.55 358.517C1323.55 309.353 1363.4 269.499 1412.57 269.499C1461.73 269.499 1501.59 309.353 1501.59 358.517Z"
            stroke="url(#paint9_linear_86_2268)" />
        <path
            d="M464.585 421.517L464.585 422.017L465.085 422.017L560.148 422.017L560.648 422.017L560.648 421.517C560.648 319.299 477.784 236.435 375.567 236.435C273.349 236.435 190.485 319.299 190.485 421.517L190.485 422.017L190.985 422.017L286.048 422.017L286.548 422.017L286.548 421.517C286.548 372.353 326.403 332.499 375.567 332.499C424.73 332.499 464.585 372.353 464.585 421.517Z"
            stroke="url(#paint10_linear_86_2268)" />
        <path opacity="0.5"
            d="M1107.38 358.666L1107.38 359.166L1107.88 359.166L1176.85 359.166L1177.35 359.166L1177.35 358.666C1177.35 284.425 1117.17 224.24 1042.93 224.24C968.684 224.24 908.5 284.425 908.5 358.666L908.5 359.166L909 359.166L977.974 359.166L978.474 359.166L978.474 358.666C978.474 323.071 1007.33 294.215 1042.93 294.215C1078.52 294.215 1107.38 323.071 1107.38 358.666Z"
            stroke="url(#paint11_linear_86_2268)" />
        <path d="M1548.42 26.5869L1558.07 55.5282L1546.05 27.694" stroke="url(#paint12_linear_86_2268)" />
        <path d="M1545.42 87.3333V26.4286H1543.52L1541.15 84.7857" stroke="url(#paint13_linear_86_2268)" />
        <path d="M1545.58 27.8519L1549.69 26.1122V23.8981L1524.86 21.2096L1545.58 26.5867"
            stroke="url(#paint14_linear_86_2268)" />
        <path d="M1545.42 23.2649L1558.39 0.333252L1548.58 23.8975" stroke="url(#paint15_linear_86_2268)" />
        <path d="M1509.84 34.867L1515.92 53.0942L1508.35 35.5642" stroke="url(#paint16_linear_86_2268)" />
        <path d="M1507.95 72.0186V34.7675H1506.75L1505.26 71.5206" stroke="url(#paint17_linear_86_2268)" />
        <path d="M1508.05 35.6642L1510.64 34.5686V33.1742L1495 31.481L1508.05 34.8674"
            stroke="url(#paint18_linear_86_2268)" />
        <path d="M1507.95 32.7755L1516.12 18.3333L1509.94 33.1739" stroke="url(#paint19_linear_86_2268)" />
        <path
            d="M1561 185.333C1588 168 1638.8 122.133 1626 77.3332C1617.94 49.1135 1587.02 34.6065 1549.5 30.8689M1446 44.0803C1476.12 33.3914 1511.49 28.259 1543 30.3327"
            stroke="url(#paint20_linear_86_2268)" />
    </g>
    <defs>
        <linearGradient id="paint0_linear_86_2268" x1="1597.15" y1="358.517" x2="1406.14" y2="472.494"
            gradientUnits="userSpaceOnUse">
            <stop stop-color="#69C9FF" />
            <stop offset="1" stop-color="#88F1BB" />
        </linearGradient>
        <linearGradient id="paint1_linear_86_2268" x1="1597.15" y1="358.517" x2="1406.14" y2="472.494"
            gradientUnits="userSpaceOnUse">
            <stop stop-color="#69C9FF" />
            <stop offset="1" stop-color="#88F1BB" />
        </linearGradient>
        <linearGradient id="paint2_linear_86_2268" x1="1714.38" y1="358.427" x2="1402.73" y2="544.477"
            gradientUnits="userSpaceOnUse">
            <stop stop-color="#69C9FF" />
            <stop offset="1" stop-color="#88F1BB" />
        </linearGradient>
        <linearGradient id="paint3_linear_86_2268" x1="1714.38" y1="358.427" x2="1402.73" y2="544.477"
            gradientUnits="userSpaceOnUse">
            <stop stop-color="#69C9FF" />
            <stop offset="1" stop-color="#88F1BB" />
        </linearGradient>
        <linearGradient id="paint4_linear_86_2268" x1="707.467" y1="421.427" x2="395.818" y2="607.477"
            gradientUnits="userSpaceOnUse">
            <stop stop-color="#69C9FF" />
            <stop offset="1" stop-color="#88F1BB" />
        </linearGradient>
        <linearGradient id="paint5_linear_86_2268" x1="1597.15" y1="358.517" x2="1406.14" y2="472.494"
            gradientUnits="userSpaceOnUse">
            <stop stop-color="#69C9FF" />
            <stop offset="1" stop-color="#88F1BB" />
        </linearGradient>
        <linearGradient id="paint6_linear_86_2268" x1="1597.15" y1="358.517" x2="1406.14" y2="472.494"
            gradientUnits="userSpaceOnUse">
            <stop stop-color="#69C9FF" />
            <stop offset="1" stop-color="#88F1BB" />
        </linearGradient>
        <linearGradient id="paint7_linear_86_2268" x1="1613.19" y1="358.427" x2="1301.61" y2="544.35"
            gradientUnits="userSpaceOnUse">
            <stop stop-color="#69C9FF" />
            <stop offset="1" stop-color="#88F1BB" />
        </linearGradient>
        <linearGradient id="paint8_linear_86_2268" x1="576.187" y1="421.427" x2="264.607" y2="607.35"
            gradientUnits="userSpaceOnUse">
            <stop stop-color="#69C9FF" />
            <stop offset="1" stop-color="#88F1BB" />
        </linearGradient>
        <linearGradient id="paint9_linear_86_2268" x1="1597.15" y1="358.517" x2="1406.14" y2="472.494"
            gradientUnits="userSpaceOnUse">
            <stop stop-color="#69C9FF" />
            <stop offset="1" stop-color="#88F1BB" />
        </linearGradient>
        <linearGradient id="paint10_linear_86_2268" x1="560.148" y1="421.517" x2="369.138" y2="535.494"
            gradientUnits="userSpaceOnUse">
            <stop stop-color="#69C9FF" />
            <stop offset="1" stop-color="#88F1BB" />
        </linearGradient>
        <linearGradient id="paint11_linear_86_2268" x1="1176.85" y1="358.666" x2="1038.26" y2="441.364"
            gradientUnits="userSpaceOnUse">
            <stop stop-color="#69C9FF" />
            <stop offset="1" stop-color="#88F1BB" />
        </linearGradient>
        <linearGradient id="paint12_linear_86_2268" x1="1558.07" y1="26.5869" x2="1549.77" y2="25.5578"
            gradientUnits="userSpaceOnUse">
            <stop stop-color="#69C9FF" />
            <stop offset="1" stop-color="#88F1BB" />
        </linearGradient>
        <linearGradient id="paint13_linear_86_2268" x1="1545.42" y1="26.4286" x2="1542.42" y2="26.3659"
            gradientUnits="userSpaceOnUse">
            <stop stop-color="#69C9FF" />
            <stop offset="1" stop-color="#88F1BB" />
        </linearGradient>
        <linearGradient id="paint14_linear_86_2268" x1="1549.69" y1="21.2096" x2="1541.93" y2="12.5505"
            gradientUnits="userSpaceOnUse">
            <stop stop-color="#69C9FF" />
            <stop offset="1" stop-color="#88F1BB" />
        </linearGradient>
        <linearGradient id="paint15_linear_86_2268" x1="1558.39" y1="0.333252" x2="1549.53" y2="-1.12156"
            gradientUnits="userSpaceOnUse">
            <stop stop-color="#69C9FF" />
            <stop offset="1" stop-color="#88F1BB" />
        </linearGradient>
        <linearGradient id="paint16_linear_86_2268" x1="1515.92" y1="34.867" x2="1510.69" y2="34.2189"
            gradientUnits="userSpaceOnUse">
            <stop stop-color="#69C9FF" />
            <stop offset="1" stop-color="#88F1BB" />
        </linearGradient>
        <linearGradient id="paint17_linear_86_2268" x1="1507.95" y1="34.7675" x2="1506.06" y2="34.7269"
            gradientUnits="userSpaceOnUse">
            <stop stop-color="#69C9FF" />
            <stop offset="1" stop-color="#88F1BB" />
        </linearGradient>
        <linearGradient id="paint18_linear_86_2268" x1="1510.64" y1="31.481" x2="1505.75" y2="26.0275"
            gradientUnits="userSpaceOnUse">
            <stop stop-color="#69C9FF" />
            <stop offset="1" stop-color="#88F1BB" />
        </linearGradient>
        <linearGradient id="paint19_linear_86_2268" x1="1516.12" y1="18.3333" x2="1510.54" y2="17.417"
            gradientUnits="userSpaceOnUse">
            <stop stop-color="#69C9FF" />
            <stop offset="1" stop-color="#88F1BB" />
        </linearGradient>
        <linearGradient id="paint20_linear_86_2268" x1="1606" y1="173.333" x2="1621.48" y2="66.4535"
            gradientUnits="userSpaceOnUse">
            <stop stop-color="#69C9FF" />
            <stop offset="1" stop-color="#88F1BB" stop-opacity="0.47" />
        </linearGradient>
    </defs>
</svg>