<svg width="24" height="27" viewBox="0 0 24 27" fill="none" xmlns="http://www.w3.org/2000/svg">
<path d="M10.7436 3.03333C10.6603 3.30256 10.6154 3.58846 10.6154 3.88462C10.6154 4.41538 11.0462 4.84615 11.5769 4.84615H17.3462C17.6012 4.84615 17.8457 4.74485 18.0261 4.56453C18.2064 4.3842 18.3077 4.13963 18.3077 3.88462C18.3078 3.59604 18.2646 3.30908 18.1795 3.03333M10.7436 3.03333C10.9257 2.44449 11.2915 1.9294 11.7875 1.56351C12.2835 1.19762 12.8836 1.00014 13.5 1H15.4231C16.7205 1 17.8167 1.85641 18.1795 3.03333M10.7436 3.03333C10.2615 3.06282 9.78205 3.09744 9.30256 3.1359C7.85256 3.25641 6.76923 4.49103 6.76923 5.94615V8.69231M18.1795 3.03333C18.6615 3.06282 19.141 3.09744 19.6205 3.1359C21.0705 3.25641 22.1538 4.49103 22.1538 5.94615V19.2692C22.1538 20.0343 21.8499 20.768 21.309 21.309C20.768 21.8499 20.0343 22.1538 19.2692 22.1538H16.3846M6.76923 8.69231H2.44231C1.64615 8.69231 1 9.33846 1 10.1346V24.5577C1 25.3538 1.64615 26 2.44231 26H14.9423C15.7385 26 16.3846 25.3538 16.3846 24.5577V22.1538M6.76923 8.69231H14.9423C15.7385 8.69231 16.3846 9.33846 16.3846 10.1346V22.1538M5.80769 18.3077L7.73077 20.2308L11.5769 15.4231" stroke="#0A8BD3" stroke-width="1.92308" stroke-linecap="round" stroke-linejoin="round"/>
</svg>
