<svg width="48" height="45" viewBox="0 0 48 45" fill="none" xmlns="http://www.w3.org/2000/svg">
    <path fill-rule="evenodd" clip-rule="evenodd"
        d="M23.9062 0.812866C24.5484 0.812866 25.069 1.33345 25.069 1.97562V4.30616C29.9859 4.35438 34.8949 4.72132 39.7651 5.40483L39.7665 5.40502C42.1394 5.74095 44.4885 6.14964 46.8136 6.62635C47.4427 6.75533 47.8481 7.36986 47.7192 7.99895C47.5902 8.62804 46.9756 9.03346 46.3466 8.90448C44.6252 8.55157 42.891 8.23678 41.1439 7.96207L46.8259 31.2204C47.2245 32.8508 46.5016 34.744 44.7207 35.3855L44.7194 35.3859C43.0782 35.9749 41.3472 36.2749 39.6035 36.2727C37.8598 36.2749 36.1289 35.9749 34.4876 35.3859L34.4863 35.3855C32.7054 34.744 31.9833 32.8514 32.3783 31.2225L32.3788 31.2205L35.2732 19.3785L38.1675 7.53642C33.823 6.97772 29.4492 6.67564 25.069 6.63179V40.9457C28.2134 41.0695 31.2312 41.6929 34.0441 42.7398C34.6459 42.9638 34.9523 43.6333 34.7283 44.2351C34.5043 44.837 33.8348 45.1433 33.233 44.9193C30.3307 43.8391 27.1889 43.2484 23.9062 43.2484C20.6235 43.2484 17.4818 43.8391 14.5794 44.9193C13.9776 45.1433 13.3081 44.837 13.0841 44.2351C12.8602 43.6333 13.1665 42.9638 13.7683 42.7398C16.5813 41.6929 19.5991 41.0695 22.7435 40.9457V6.63218C18.3094 6.67775 13.9378 6.98371 9.64524 7.53616L12.5383 19.3783L15.4313 31.2204C15.8298 32.8508 15.1069 34.744 13.3261 35.3855L13.3248 35.3859C11.6835 35.9749 9.95262 36.2749 8.2089 36.2727C6.46519 36.2749 4.73429 35.9749 3.09305 35.3859L3.09172 35.3855C1.31083 34.744 0.588663 32.8514 0.983696 31.2225L3.8263 19.5923L6.66891 7.96201C4.92167 8.23673 3.18732 8.55154 1.46586 8.90448C0.836771 9.03346 0.222237 8.62804 0.0932597 7.99895C-0.035718 7.36986 0.369702 6.75533 0.99879 6.62635C3.32393 6.14964 5.67298 5.74095 8.04592 5.40502L8.04705 5.40487C12.8549 4.72903 17.7612 4.35672 22.7435 4.30655V1.97562C22.7435 1.33345 23.264 0.812866 23.9062 0.812866ZM8.20892 11.4559L5.72631 21.6133L3.2437 31.7706C3.07655 32.4616 3.41417 33.0295 3.87925 33.1973C5.26777 33.6955 6.73214 33.9492 8.20735 33.9472H8.21046C9.68568 33.9492 11.1501 33.6955 12.5386 33.1973C13.0039 33.0294 13.341 32.4626 13.1723 31.7728L10.6906 21.6143L8.20892 11.4559ZM8.2089 36.2727H8.20735L8.2089 35.11L8.21046 36.2727H8.2089ZM39.6035 11.4559L37.1209 21.6133L34.6383 31.7706L34.638 31.7718C34.471 32.4628 34.8089 33.0297 35.2741 33.1974C36.6625 33.6956 38.1268 33.9492 39.6019 33.9472H39.6051C41.0802 33.9492 42.5445 33.6956 43.933 33.1974C44.3983 33.0296 44.7356 32.4628 44.5669 31.7728L42.0852 21.6143L39.6035 11.4559ZM39.6035 36.2727H39.6019L39.6035 35.11L39.6051 36.2727H39.6035Z"
        fill="url(#paint0_linear_1002_9287)" />
    <defs>
        <linearGradient id="paint0_linear_1002_9287" x1="46.4249" y1="-21.2769" x2="-1.33515" y2="-20.2774"
            gradientUnits="userSpaceOnUse">
            <stop stop-color="#6ACAFF" />
            <stop offset="1" stop-color="#86EEC1" />
        </linearGradient>
    </defs>
</svg>