<svg width="155" height="153" viewBox="0 0 155 153" fill="none" xmlns="http://www.w3.org/2000/svg">
    <path fill-rule="evenodd" clip-rule="evenodd"
        d="M155 68.5C155 106.332 124.332 137 86.5 137C48.6685 137 18 106.332 18 68.5C18 30.6685 48.6685 0 86.5 0C124.332 0 155 30.6685 155 68.5ZM86.5 128.78C119.792 128.78 146.78 101.792 146.78 68.5C146.78 35.2083 119.792 8.22 86.5 8.22C53.2083 8.22 26.22 35.2083 26.22 68.5C26.22 101.792 53.2083 128.78 86.5 128.78Z"
        fill="url(#paint0_linear_1005_8583)" />
    <path
        d="M103 43C105.761 43 108 45.2386 108 48V89.4092C108 92.1706 105.761 94.4092 103 94.4092H101.234C99.5919 94.4092 98.0545 93.603 97.1208 92.2523L76.3194 62.1591C76.2733 62.0924 76.1974 62.0525 76.1162 62.0525V62.0525C75.9798 62.0525 75.8692 62.1631 75.8692 62.2995V89.4092C75.8692 92.1706 73.6307 94.4092 70.8692 94.4092H70C67.2386 94.4092 65 92.1706 65 89.4092V48C65 45.2386 67.2386 43 70 43H71.9061C73.554 43 75.0961 43.812 76.0286 45.1706L96.6409 75.2031C96.6961 75.2835 96.7874 75.3316 96.885 75.3316V75.3316C97.0484 75.3316 97.181 75.1991 97.181 75.0356V48C97.181 45.2386 99.4195 43 102.181 43H103Z"
        fill="url(#paint1_linear_1005_8583)" />
    <circle cx="87" cy="69" r="56.8" stroke="url(#paint2_linear_1005_8583)" stroke-width="1.6"
        stroke-dasharray="3.2 3.2" />
    <g filter="url(#filter0_d_1005_8583)">
        <path
            d="M61.2518 122.045C62.571 118.861 63.25 115.447 63.25 112C63.25 105.038 60.4844 98.3613 55.5616 93.4384C50.6387 88.5156 43.9619 85.75 37 85.75C30.0381 85.75 23.3613 88.5156 18.4384 93.4384C13.5156 98.3613 10.75 105.038 10.75 112C10.75 115.447 11.429 118.861 12.7482 122.045C14.0673 125.23 16.0009 128.124 18.4384 130.562C20.876 132.999 23.7698 134.933 26.9546 136.252C30.1394 137.571 33.5528 138.25 37 138.25C40.4472 138.25 43.8606 137.571 47.0454 136.252C50.2302 134.933 53.124 132.999 55.5616 130.562C57.9991 128.124 59.9327 125.23 61.2518 122.045Z"
            fill="white" />
        <path fill-rule="evenodd" clip-rule="evenodd"
            d="M26.4822 110.232C27.4585 109.256 29.0415 109.256 30.0178 110.232L34.0833 114.298L43.9822 104.399C44.9585 103.423 46.5415 103.423 47.5178 104.399C48.4941 105.375 48.4941 106.958 47.5178 107.934L35.8511 119.601C35.3823 120.07 34.7464 120.333 34.0833 120.333C33.4203 120.333 32.7844 120.07 32.3156 119.601L26.4822 113.768C25.5059 112.791 25.5059 111.209 26.4822 110.232ZM17.3676 120.132C18.4355 122.71 20.0007 125.053 21.974 127.026C23.9472 128.999 26.2898 130.565 28.868 131.632C31.4461 132.7 34.2094 133.25 37 133.25C39.7906 133.25 42.5539 132.7 45.132 131.632C47.7102 130.565 50.0528 128.999 52.026 127.026C53.9993 125.053 55.5645 122.71 56.6324 120.132C57.7004 117.554 58.25 114.791 58.25 112C58.25 106.364 56.0112 100.959 52.026 96.974C48.0409 92.9888 42.6358 90.75 37 90.75C31.3641 90.75 25.9591 92.9888 21.974 96.974C17.9888 100.959 15.75 106.364 15.75 112C15.75 114.791 16.2996 117.554 17.3676 120.132ZM18.4384 130.562C16.0009 128.124 14.0673 125.23 12.7482 122.045C11.429 118.861 10.75 115.447 10.75 112C10.75 105.038 13.5156 98.3613 18.4384 93.4384C23.3613 88.5156 30.0381 85.75 37 85.75C43.9619 85.75 50.6387 88.5156 55.5616 93.4384C60.4844 98.3613 63.25 105.038 63.25 112C63.25 115.447 62.571 118.861 61.2518 122.045C59.9327 125.23 57.9991 128.124 55.5616 130.562C53.124 132.999 50.2302 134.933 47.0454 136.252C43.8606 137.571 40.4472 138.25 37 138.25C33.5528 138.25 30.1394 137.571 26.9546 136.252C23.7698 134.933 20.876 132.999 18.4384 130.562Z"
            fill="url(#paint3_linear_1005_8583)" />
    </g>
    <defs>
        <filter id="filter0_d_1005_8583" x="0.75" y="79.75" width="72.5" height="72.5" filterUnits="userSpaceOnUse"
            color-interpolation-filters="sRGB">
            <feFlood flood-opacity="0" result="BackgroundImageFix" />
            <feColorMatrix in="SourceAlpha" type="matrix" values="0 0 0 0 0 0 0 0 0 0 0 0 0 0 0 0 0 0 127 0"
                result="hardAlpha" />
            <feOffset dy="4" />
            <feGaussianBlur stdDeviation="5" />
            <feComposite in2="hardAlpha" operator="out" />
            <feColorMatrix type="matrix" values="0 0 0 0 0 0 0 0 0 0 0 0 0 0 0 0 0 0 0.15 0" />
            <feBlend mode="normal" in2="BackgroundImageFix" result="effect1_dropShadow_1005_8583" />
            <feBlend mode="normal" in="SourceGraphic" in2="effect1_dropShadow_1005_8583" result="shape" />
        </filter>
        <linearGradient id="paint0_linear_1005_8583" x1="21.425" y1="119.875" x2="146.78" y2="13.7"
            gradientUnits="userSpaceOnUse">
            <stop stop-color="#6ACAFF" />
            <stop offset="1" stop-color="#88F1BB" />
        </linearGradient>
        <linearGradient id="paint1_linear_1005_8583" x1="42.3751" y1="102.233" x2="120.925" y2="24.1308"
            gradientUnits="userSpaceOnUse">
            <stop stop-color="#6ACAFF" />
            <stop offset="1" stop-color="#88F1BB" />
        </linearGradient>
        <linearGradient id="paint2_linear_1005_8583" x1="26.5455" y1="116.727" x2="143" y2="18.0909"
            gradientUnits="userSpaceOnUse">
            <stop stop-color="#6ACAFF" />
            <stop offset="1" stop-color="#88F1BB" />
        </linearGradient>
        <linearGradient id="paint3_linear_1005_8583" x1="8.66193" y1="134.372" x2="63.25" y2="88.1364"
            gradientUnits="userSpaceOnUse">
            <stop stop-color="#6FD1F4" />
            <stop offset="1" stop-color="#73D6EC" />
        </linearGradient>
    </defs>
</svg>