<svg width="90" height="90" viewBox="0 0 90 90" fill="none" xmlns="http://www.w3.org/2000/svg">
    <path
        d="M60.0319 58.9524C58.401 58.9018 56.7871 58.5955 55.2494 58.0437L55.2486 58.0434L55.2475 58.043C53.1805 57.2984 52.3801 55.1183 52.8231 53.2918L52.8231 53.2915L52.8236 53.2895L52.8238 53.2889L58.4794 30.1495C54.504 29.6587 50.5049 29.3834 46.4996 29.3251V62.656C49.5248 62.8238 52.4309 63.4467 55.1492 64.4583C56.0098 64.7787 56.4478 65.736 56.1275 66.5966C55.8072 67.4573 54.8499 67.8953 53.9892 67.575C51.1419 66.5153 48.0591 65.9355 44.8369 65.9355C41.6146 65.9355 38.5318 66.5153 35.6845 67.575C34.8239 67.8953 33.8665 67.4573 33.5462 66.5966C33.2259 65.736 33.6639 64.7787 34.5246 64.4583C37.2429 63.4467 40.1489 62.8238 43.1741 62.656V29.3256C39.1235 29.3854 35.1261 29.6636 31.1947 30.1492L36.8476 53.2888C36.8476 53.2888 36.8476 53.2889 36.8476 53.2889C36.8477 53.2889 36.8477 53.289 36.8477 53.2891L60.0319 58.9524ZM60.0319 58.9524L60.0319 58.9599H60.4926C60.5064 58.9599 60.5203 58.9599 60.5342 58.9599C60.548 58.9599 60.5619 58.9599 60.5758 58.9599H61.0364L61.0364 58.9524C62.6673 58.9018 64.2812 58.5955 65.819 58.0437L65.8198 58.0434L65.8208 58.043C67.8879 57.2984 68.6894 55.1174 68.2422 53.2888L62.7391 30.7624C64.2277 31.0066 65.7069 31.2801 67.1768 31.5814C68.0764 31.7659 68.9552 31.1861 69.1396 30.2865C69.3241 29.3869 68.7443 28.5081 67.8447 28.3237C65.5097 27.845 63.1506 27.4345 60.7672 27.0971L60.7666 27.097L60.7653 27.0968C56.0371 26.4332 51.2726 26.0667 46.4996 25.9992V24.1628C46.4996 23.2444 45.7552 22.5 44.8369 22.5C43.9186 22.5 43.1741 23.2444 43.1741 24.1628V25.9997C38.3402 26.0691 33.578 26.4404 28.9081 27.0969L28.9079 27.0969L28.9068 27.0971L28.9065 27.0971C26.5232 27.4345 24.164 27.845 21.829 28.3237C20.9294 28.5081 20.3497 29.3869 20.5341 30.2865C20.7186 31.1861 21.5973 31.7659 22.4969 31.5814C23.9669 31.28 25.4463 31.0066 26.935 30.7623L21.4287 53.291L21.4284 53.2918C20.9855 55.1183 21.7859 57.2984 23.8529 58.043L23.8538 58.0433L23.8548 58.0437C25.3926 58.5955 27.0065 58.9018 28.6373 58.9524M60.0319 58.9524L28.6373 58.9524M28.6373 58.9524L28.6373 58.9599H29.0987"
        fill="url(#paint0_linear_946_9187)" stroke="#FDFEFF" />
    <circle cx="45" cy="45" r="35.5" stroke="url(#paint1_linear_946_9187)" stroke-dasharray="2 2" />
    <circle cx="45" cy="45" r="44.5" stroke="url(#paint2_linear_946_9187)" />
    <defs>
        <linearGradient id="paint0_linear_946_9187" x1="67.3556" y1="0.910225" x2="19.5955" y2="1.90975"
            gradientUnits="userSpaceOnUse">
            <stop stop-color="#6ACAFF" />
            <stop offset="1" stop-color="#86EEC1" />
        </linearGradient>
        <linearGradient id="paint1_linear_946_9187" x1="7.21591" y1="74.8295" x2="80" y2="13.1818"
            gradientUnits="userSpaceOnUse">
            <stop stop-color="#6ACAFF" />
            <stop offset="1" stop-color="#88F1BB" />
        </linearGradient>
        <linearGradient id="paint2_linear_946_9187" x1="-2.5" y1="82.5" x2="89" y2="4.99999"
            gradientUnits="userSpaceOnUse">
            <stop stop-color="#6ACAFF" />
            <stop offset="1" stop-color="#88F1BB" />
        </linearGradient>
    </defs>
</svg>