<svg width="29" height="34" viewBox="0 0 29 34" fill="none" xmlns="http://www.w3.org/2000/svg">
<path d="M13.6923 4.44003C13.5923 4.7631 13.5385 5.10618 13.5385 5.46157C13.5385 6.09849 14.0554 6.61541 14.6923 6.61541H21.6154C21.9214 6.61541 22.2149 6.49385 22.4313 6.27746C22.6477 6.06107 22.7692 5.76759 22.7692 5.46157C22.7693 5.11527 22.7175 4.77093 22.6154 4.44003M13.6923 4.44003C13.9108 3.73341 14.3498 3.11531 14.945 2.67624C15.5402 2.23717 16.2604 2.0002 17 2.00003H19.3077C20.8646 2.00003 22.18 3.02772 22.6154 4.44003M13.6923 4.44003C13.1138 4.47541 12.5385 4.51695 11.9631 4.5631C10.2231 4.70772 8.92308 6.18926 8.92308 7.93541V11.2308M22.6154 4.44003C23.1938 4.47541 23.7692 4.51695 24.3446 4.5631C26.0846 4.70772 27.3846 6.18926 27.3846 7.93541V23.9231C27.3846 24.8412 27.0199 25.7216 26.3708 26.3708C25.7216 27.0199 24.8411 27.3846 23.9231 27.3846H20.4615M8.92308 11.2308H3.73077C2.77538 11.2308 2 12.0062 2 12.9616V30.2693C2 31.2246 2.77538 32 3.73077 32H18.7308C19.6862 32 20.4615 31.2246 20.4615 30.2693V27.3846M8.92308 11.2308H18.7308C19.6862 11.2308 20.4615 12.0062 20.4615 12.9616V27.3846" stroke="#0A8BD3" stroke-width="2.30769" stroke-linecap="round" stroke-linejoin="round"/>
<path d="M6.62431 24.7025C6.19164 25.4447 6.73272 26.3719 7.59755 26.3719H14.9468C15.8112 26.3719 16.3522 25.4447 15.9201 24.7025L12.2459 18.3951C11.8133 17.653 10.7311 17.653 10.2985 18.3951L6.62431 24.7025Z" stroke="#0A8BD3" stroke-width="2.13333" stroke-linecap="round" stroke-linejoin="round"/>
<path d="M11.3169 23.6149L11.3169 22.3105" stroke="#0A8BD3" stroke-width="2.04969" stroke-linecap="round"/>
</svg>
