<svg width="256" height="189" viewBox="0 0 256 189" fill="none" xmlns="http://www.w3.org/2000/svg">
<rect x="1.46465" y="1.12188" width="253.071" height="54.9598" rx="12.3021" fill="url(#paint0_linear_765_15437)"/>
<path d="M46.0822 28.6054C46.0847 26.2793 45.5638 23.9811 44.5562 21.8697C43.6559 19.9831 42.3865 18.2863 40.8212 16.8712C42.7206 15.9682 44.8168 15.5043 46.9427 15.522C49.3147 15.5417 51.6392 16.1602 53.6848 17.3149C55.7303 18.4695 57.4248 20.1194 58.6017 22.0989C59.7785 24.0782 60.3972 26.3189 60.3978 28.5984C60.3984 30.8778 59.7809 33.1188 58.6051 35.0987C57.4293 37.0788 55.7356 38.7295 53.6907 39.8851C51.6457 41.0408 49.3216 41.6604 46.9495 41.6813C44.8233 41.7 42.7263 41.237 40.8261 40.3345C42.3898 38.9197 43.6578 37.2238 44.5572 35.3383C45.5641 33.2276 46.0846 30.9304 46.0822 28.6054ZM46.0822 28.6054C46.0822 28.6056 46.0822 28.6057 46.0822 28.6059L45.5822 28.6054L46.0822 28.6048C46.0822 28.605 46.0822 28.6052 46.0822 28.6054ZM30.1778 28.6054C30.1753 26.2793 30.6962 23.9811 31.7038 21.8697C32.6041 19.9831 33.8736 18.2863 35.4388 16.8712C33.5397 15.9681 31.4452 15.5043 29.3194 15.522C26.9474 15.5417 24.6229 16.1602 22.5773 17.3149C20.5318 18.4695 18.8373 20.1194 17.6604 22.0989C16.4836 24.0782 15.8649 26.3189 15.8643 28.5984C15.8637 30.8778 16.4812 33.1188 17.657 35.0987C18.8328 37.0788 20.5265 38.7295 22.5714 39.8851C24.6164 41.0408 26.9405 41.6604 29.3126 41.6813C31.4383 41.7 33.5348 41.2372 35.4346 40.3351C33.8707 38.9202 32.6023 37.224 31.7028 35.3383C30.696 33.2276 30.1754 30.9304 30.1778 28.6054ZM30.1778 28.6054C30.1778 28.6052 30.1778 28.605 30.1778 28.6048L30.6778 28.6054L30.1778 28.6059C30.1778 28.6057 30.1778 28.6055 30.1778 28.6054ZM43.0039 28.6009V28.6017C43.0051 30.5784 42.5405 32.5303 41.6444 34.3098C40.8048 35.9771 39.6066 37.4528 38.13 38.6389C36.6531 37.4526 35.4548 35.9766 34.6152 34.3089C33.7191 32.5291 33.2546 30.5768 33.2562 28.5997V28.599C33.2546 26.6219 33.7191 24.6696 34.6152 22.8898C35.4548 21.2221 36.6531 19.7462 38.13 18.5599C39.6072 19.7464 40.8056 21.2227 41.6453 22.8907C42.5414 24.6709 43.0057 26.6235 43.0039 28.6009Z" fill="url(#paint1_linear_765_15437)" stroke="url(#paint2_linear_765_15437)"/>
<rect x="70.9841" y="16.3203" width="165.956" height="10.1837" rx="5.09184" fill="url(#paint3_linear_765_15437)" stroke="url(#paint4_linear_765_15437)"/>
<rect x="70.9841" y="32.2971" width="86.073" height="10.1837" rx="5.09184" fill="url(#paint5_linear_765_15437)" stroke="url(#paint6_linear_765_15437)"/>
<rect x="1.46465" y="1.12188" width="253.071" height="54.9598" rx="12.3021" stroke="url(#paint7_linear_765_15437)" stroke-width="0.958602"/>
<g opacity="0.5">
<rect x="1.46465" y="67.0201" width="253.071" height="54.9598" rx="12.3021" fill="url(#paint8_linear_765_15437)"/>
<path d="M46.0615 94.5038C46.064 92.1809 45.5438 89.8857 44.5375 87.777C43.634 85.8837 42.3582 84.1817 40.7844 82.7643C42.694 81.8511 44.8035 81.3819 46.9428 81.3997C49.3184 81.4195 51.6463 82.0389 53.695 83.1953C55.7435 84.3517 57.4407 86.0041 58.6195 87.9868C59.7982 89.9693 60.4179 92.2136 60.4185 94.4968C60.4191 96.78 59.8006 99.0246 58.6229 101.008C57.4452 102.991 55.7489 104.644 53.7009 105.802C51.6528 106.959 49.3253 107.58 46.9497 107.6C44.8099 107.619 42.6997 107.151 40.7893 106.238C42.3615 104.821 43.6359 103.12 44.5386 101.228C45.5441 99.1199 46.0639 96.8257 46.0615 94.5038ZM46.0615 94.5038C46.0615 94.504 46.0615 94.5042 46.0615 94.5043L45.5822 94.5038L46.0615 94.5033C46.0615 94.5035 46.0615 94.5036 46.0615 94.5038ZM30.1985 94.5038C30.196 92.1809 30.7162 89.8857 31.7225 87.777C32.626 85.8837 33.9018 84.1817 35.4757 82.7643C33.5663 81.8511 31.4586 81.3819 29.3193 81.3997C26.9437 81.4195 24.6158 82.0389 22.5671 83.1953C20.5186 84.3517 18.8214 86.0041 17.6426 87.9868C16.4639 89.9693 15.8442 92.2136 15.8436 94.4968C15.843 96.78 16.4615 99.0246 17.6392 101.008C18.8169 102.991 20.5132 104.644 22.5612 105.802C24.6093 106.959 26.9368 107.58 29.3124 107.6C31.4517 107.619 33.5614 107.151 35.4714 106.239C33.8989 104.822 32.6242 103.12 31.7215 101.228C30.716 99.1199 30.1961 96.8257 30.1985 94.5038ZM30.1985 94.5038C30.1985 94.5036 30.1985 94.5035 30.1985 94.5033L30.6778 94.5038L30.1985 94.5043C30.1985 94.5042 30.1985 94.504 30.1985 94.5038ZM43.0246 94.4994V94.5001C43.0258 96.4801 42.5604 98.4352 41.6629 100.218C40.8195 101.892 39.6149 103.374 38.13 104.564C36.6449 103.374 35.4401 101.892 34.5967 100.217C33.6991 98.4339 33.2339 96.4785 33.2355 94.4982V94.4974C33.2339 92.5171 33.6991 90.5616 34.5967 88.779C35.4401 87.1037 36.6449 85.6217 38.13 84.4318C39.6154 85.6219 40.8203 87.1042 41.6638 88.7798C42.5613 90.5629 43.0264 92.5187 43.0246 94.4994Z" fill="url(#paint9_linear_765_15437)" stroke="url(#paint10_linear_765_15437)" stroke-width="0.958602"/>
<rect x="70.9634" y="82.1978" width="165.998" height="10.2251" rx="5.11254" fill="url(#paint11_linear_765_15437)" stroke="url(#paint12_linear_765_15437)" stroke-width="0.958602"/>
<rect x="70.9634" y="98.1746" width="86.1144" height="10.2251" rx="5.11254" fill="url(#paint13_linear_765_15437)" stroke="url(#paint14_linear_765_15437)" stroke-width="0.958602"/>
<rect x="1.46465" y="67.0201" width="253.071" height="54.9598" rx="12.3021" stroke="url(#paint15_linear_765_15437)" stroke-width="0.958602"/>
</g>
<g opacity="0.2">
<rect x="1.46465" y="132.918" width="253.071" height="54.9598" rx="12.3021" fill="url(#paint16_linear_765_15437)"/>
<rect x="1.46465" y="132.918" width="253.071" height="54.9598" rx="12.3021" stroke="url(#paint17_linear_765_15437)" stroke-width="0.958602"/>
<path d="M46.0615 160.402C46.064 158.079 45.5438 155.784 44.5375 153.675C43.634 151.782 42.3582 150.08 40.7844 148.662C42.694 147.749 44.8035 147.28 46.9428 147.298C49.3184 147.318 51.6463 147.937 53.695 149.094C55.7435 150.25 57.4407 151.902 58.6195 153.885C59.7982 155.867 60.4179 158.112 60.4185 160.395C60.4191 162.678 59.8006 164.923 58.6229 166.906C57.4452 168.889 55.7489 170.542 53.7009 171.7C51.6528 172.857 49.3253 173.478 46.9497 173.499C44.8099 173.517 42.6997 173.049 40.7893 172.136C42.3615 170.719 43.6359 169.018 44.5386 167.126C45.5441 165.018 46.0639 162.724 46.0615 160.402ZM46.0615 160.402C46.0615 160.402 46.0615 160.402 46.0615 160.403L45.5822 160.402L46.0615 160.401C46.0615 160.402 46.0615 160.402 46.0615 160.402ZM30.1985 160.402C30.196 158.079 30.7162 155.784 31.7225 153.675C32.626 151.782 33.9018 150.08 35.4757 148.662C33.5663 147.749 31.4586 147.28 29.3193 147.298C26.9437 147.318 24.6158 147.937 22.5671 149.094C20.5186 150.25 18.8214 151.902 17.6426 153.885C16.4639 155.867 15.8442 158.112 15.8436 160.395C15.843 162.678 16.4615 164.923 17.6392 166.906C18.8169 168.889 20.5132 170.542 22.5612 171.7C24.6093 172.857 26.9368 173.478 29.3124 173.499C31.4517 173.517 33.5614 173.049 35.4714 172.137C33.8989 170.72 32.6242 169.019 31.7215 167.126C30.716 165.018 30.1961 162.724 30.1985 160.402ZM30.1985 160.402C30.1985 160.402 30.1985 160.402 30.1985 160.401L30.6778 160.402L30.1985 160.403C30.1985 160.402 30.1985 160.402 30.1985 160.402ZM43.0246 160.398V160.398C43.0258 162.378 42.5604 164.333 41.6629 166.116C40.8195 167.791 39.6149 169.272 38.13 170.462C36.6449 169.272 35.4401 167.79 34.5967 166.115C33.6991 164.332 33.2339 162.377 33.2355 160.396V160.396C33.2339 158.415 33.6991 156.46 34.5967 154.677C35.4401 153.002 36.6449 151.52 38.13 150.33C39.6154 151.52 40.8203 153.002 41.6638 154.678C42.5613 156.461 43.0264 158.417 43.0246 160.398Z" fill="url(#paint18_linear_765_15437)" stroke="url(#paint19_linear_765_15437)" stroke-width="0.958602"/>
<rect x="70.9634" y="148.096" width="165.998" height="10.2251" rx="5.11254" fill="url(#paint20_linear_765_15437)" stroke="url(#paint21_linear_765_15437)" stroke-width="0.958602"/>
<rect x="70.9634" y="164.073" width="86.1144" height="10.2251" rx="5.11254" fill="url(#paint22_linear_765_15437)" stroke="url(#paint23_linear_765_15437)" stroke-width="0.958602"/>
</g>
<defs>
<linearGradient id="paint0_linear_765_15437" x1="234.602" y1="8.13165" x2="222.786" y2="78.6774" gradientUnits="userSpaceOnUse">
<stop stop-color="#88F1BB" stop-opacity="0.04"/>
<stop offset="1" stop-color="#88E5F1" stop-opacity="0.26"/>
</linearGradient>
<linearGradient id="paint1_linear_765_15437" x1="57.2389" y1="18.659" x2="43.982" y2="47.8686" gradientUnits="userSpaceOnUse">
<stop stop-color="#88F1BB" stop-opacity="0.04"/>
<stop offset="1" stop-color="#88E5F1" stop-opacity="0.26"/>
</linearGradient>
<linearGradient id="paint2_linear_765_15437" x1="15.3643" y1="15.0215" x2="40.9193" y2="2.23931" gradientUnits="userSpaceOnUse">
<stop stop-color="#69C9FF"/>
<stop offset="1" stop-color="#88F1BB"/>
</linearGradient>
<linearGradient id="paint3_linear_765_15437" x1="224.024" y1="17.3181" x2="223.287" y2="31.7855" gradientUnits="userSpaceOnUse">
<stop stop-color="#88F1BB" stop-opacity="0.04"/>
<stop offset="1" stop-color="#88E5F1" stop-opacity="0.26"/>
</linearGradient>
<linearGradient id="paint4_linear_765_15437" x1="70.4841" y1="15.8203" x2="76.1057" y2="-9.21838" gradientUnits="userSpaceOnUse">
<stop stop-color="#69C9FF"/>
<stop offset="1" stop-color="#88F1BB"/>
</linearGradient>
<linearGradient id="paint5_linear_765_15437" x1="150.56" y1="33.2949" x2="149.156" y2="47.6626" gradientUnits="userSpaceOnUse">
<stop stop-color="#88F1BB" stop-opacity="0.04"/>
<stop offset="1" stop-color="#88E5F1" stop-opacity="0.26"/>
</linearGradient>
<linearGradient id="paint6_linear_765_15437" x1="70.4841" y1="31.7971" x2="80.0363" y2="9.60843" gradientUnits="userSpaceOnUse">
<stop stop-color="#69C9FF"/>
<stop offset="1" stop-color="#88F1BB"/>
</linearGradient>
<linearGradient id="paint7_linear_765_15437" x1="0.985352" y1="0.642578" x2="63.8104" y2="-84.5094" gradientUnits="userSpaceOnUse">
<stop stop-color="#69C9FF"/>
<stop offset="1" stop-color="#88F1BB"/>
</linearGradient>
<linearGradient id="paint8_linear_765_15437" x1="234.602" y1="74.0298" x2="222.786" y2="144.576" gradientUnits="userSpaceOnUse">
<stop stop-color="#88F1BB" stop-opacity="0.04"/>
<stop offset="1" stop-color="#88E5F1" stop-opacity="0.26"/>
</linearGradient>
<linearGradient id="paint9_linear_765_15437" x1="57.2389" y1="84.5575" x2="43.982" y2="113.767" gradientUnits="userSpaceOnUse">
<stop stop-color="#88F1BB" stop-opacity="0.04"/>
<stop offset="1" stop-color="#88E5F1" stop-opacity="0.26"/>
</linearGradient>
<linearGradient id="paint10_linear_765_15437" x1="15.3643" y1="80.9199" x2="40.9193" y2="68.1377" gradientUnits="userSpaceOnUse">
<stop stop-color="#69C9FF"/>
<stop offset="1" stop-color="#88F1BB"/>
</linearGradient>
<linearGradient id="paint11_linear_765_15437" x1="224.024" y1="83.2163" x2="223.287" y2="97.6837" gradientUnits="userSpaceOnUse">
<stop stop-color="#88F1BB" stop-opacity="0.04"/>
<stop offset="1" stop-color="#88E5F1" stop-opacity="0.26"/>
</linearGradient>
<linearGradient id="paint12_linear_765_15437" x1="70.4841" y1="81.7185" x2="76.1057" y2="56.6798" gradientUnits="userSpaceOnUse">
<stop stop-color="#69C9FF"/>
<stop offset="1" stop-color="#88F1BB"/>
</linearGradient>
<linearGradient id="paint13_linear_765_15437" x1="150.56" y1="99.1931" x2="149.156" y2="113.561" gradientUnits="userSpaceOnUse">
<stop stop-color="#88F1BB" stop-opacity="0.04"/>
<stop offset="1" stop-color="#88E5F1" stop-opacity="0.26"/>
</linearGradient>
<linearGradient id="paint14_linear_765_15437" x1="70.4841" y1="97.6953" x2="80.0363" y2="75.5066" gradientUnits="userSpaceOnUse">
<stop stop-color="#69C9FF"/>
<stop offset="1" stop-color="#88F1BB"/>
</linearGradient>
<linearGradient id="paint15_linear_765_15437" x1="0.985352" y1="66.5408" x2="63.8104" y2="-18.6112" gradientUnits="userSpaceOnUse">
<stop stop-color="#69C9FF"/>
<stop offset="1" stop-color="#88F1BB"/>
</linearGradient>
<linearGradient id="paint16_linear_765_15437" x1="74.9261" y1="183.54" x2="66.9988" y2="149.247" gradientUnits="userSpaceOnUse">
<stop stop-color="#88F1BB" stop-opacity="0"/>
<stop offset="1" stop-color="#88E5F1" stop-opacity="0.26"/>
</linearGradient>
<linearGradient id="paint17_linear_765_15437" x1="113" y1="137.643" x2="130.839" y2="145.587" gradientUnits="userSpaceOnUse">
<stop stop-color="#69C9FF"/>
<stop offset="1" stop-color="#88F1BB"/>
</linearGradient>
<linearGradient id="paint18_linear_765_15437" x1="57.2389" y1="150.456" x2="43.982" y2="179.665" gradientUnits="userSpaceOnUse">
<stop stop-color="#88F1BB" stop-opacity="0.04"/>
<stop offset="1" stop-color="#88E5F1" stop-opacity="0.26"/>
</linearGradient>
<linearGradient id="paint19_linear_765_15437" x1="15.3643" y1="146.818" x2="40.9193" y2="134.036" gradientUnits="userSpaceOnUse">
<stop stop-color="#69C9FF"/>
<stop offset="1" stop-color="#88F1BB"/>
</linearGradient>
<linearGradient id="paint20_linear_765_15437" x1="224.024" y1="149.115" x2="223.287" y2="163.582" gradientUnits="userSpaceOnUse">
<stop stop-color="#88F1BB" stop-opacity="0.04"/>
<stop offset="1" stop-color="#88E5F1" stop-opacity="0.26"/>
</linearGradient>
<linearGradient id="paint21_linear_765_15437" x1="70.4841" y1="147.617" x2="76.1057" y2="122.578" gradientUnits="userSpaceOnUse">
<stop stop-color="#69C9FF"/>
<stop offset="1" stop-color="#88F1BB"/>
</linearGradient>
<linearGradient id="paint22_linear_765_15437" x1="150.56" y1="165.092" x2="149.156" y2="179.459" gradientUnits="userSpaceOnUse">
<stop stop-color="#88F1BB" stop-opacity="0.04"/>
<stop offset="1" stop-color="#88E5F1" stop-opacity="0.26"/>
</linearGradient>
<linearGradient id="paint23_linear_765_15437" x1="70.4841" y1="163.594" x2="80.0363" y2="141.405" gradientUnits="userSpaceOnUse">
<stop stop-color="#69C9FF"/>
<stop offset="1" stop-color="#88F1BB"/>
</linearGradient>
</defs>
</svg>
