<svg width="236" height="178" viewBox="0 0 236 178" fill="none" xmlns="http://www.w3.org/2000/svg">
    <path fill-rule="evenodd" clip-rule="evenodd"
        d="M151 75.5C151 117.197 117.197 151 75.5 151C33.8025 151 0 117.197 0 75.5C0 33.8025 33.8025 0 75.5 0C117.197 0 151 33.8025 151 75.5ZM75.5 141.94C112.194 141.94 141.94 112.194 141.94 75.5C141.94 38.8062 112.194 9.06 75.5 9.06C38.8062 9.06 9.06 38.8062 9.06 75.5C9.06 112.194 38.8062 141.94 75.5 141.94Z"
        fill="url(#paint0_linear_1016_8586)" />
    <path
        d="M134 76C134 75.2914 133.988 74.5857 133.964 73.883L132.965 73.9168C132.918 72.5218 132.823 71.139 132.683 69.7702L133.678 69.6684C133.534 68.2564 133.341 66.8589 133.103 65.4776L132.118 65.6476C131.881 64.2741 131.598 62.917 131.27 61.578L132.241 61.3402C131.904 59.9639 131.521 58.6064 131.093 57.2697L130.141 57.5745C129.716 56.2485 129.247 54.9433 128.735 53.6607L129.664 53.2901C129.14 51.9761 128.571 50.6853 127.961 49.4198L127.06 49.8544C126.456 48.6019 125.809 47.3746 125.123 46.1744L125.991 45.6778C125.289 44.4511 124.546 43.2523 123.763 42.0834L122.932 42.6396C122.16 41.485 121.348 40.36 120.499 39.2666L121.289 38.6534C120.423 37.5381 119.519 36.4551 118.579 35.4065L117.835 36.0739C116.908 35.0402 115.946 34.0406 114.951 33.077L115.646 32.3585C114.633 31.3771 113.585 30.4324 112.504 29.5266L111.862 30.2928C110.799 29.4018 109.705 28.5491 108.581 27.7366L109.167 26.9262C108.025 26.1001 106.852 25.3149 105.651 24.5727L105.125 25.4233C103.947 24.6953 102.742 24.0093 101.511 23.3675L101.973 22.4808C100.724 21.8296 99.4491 21.2231 98.1502 20.6632L97.7544 21.5815C96.4849 21.0342 95.1922 20.5324 93.8782 20.0779L94.2051 19.1328C92.8756 18.673 91.5247 18.2608 90.1544 17.8983L89.8986 18.865C88.5651 18.5122 87.2129 18.2073 85.8438 17.9521L86.027 16.969C84.647 16.7118 83.2502 16.5042 81.8384 16.3482L81.7286 17.3421C80.3605 17.1909 78.978 17.089 77.5829 17.038L77.6194 16.0387C76.916 16.013 76.2094 16 75.5 16C74.7906 16 74.084 16.013 73.3806 16.0387L73.4171 17.038C72.022 17.089 70.6395 17.1909 69.2714 17.3421L69.1616 16.3482C67.7498 16.5042 66.353 16.7118 64.973 16.969L65.1562 17.9521C63.7871 18.2073 62.4349 18.5122 61.1014 18.865L60.8456 17.8983C59.4753 18.2608 58.1244 18.673 56.7949 19.1328L57.1218 20.0779C55.8078 20.5324 54.5151 21.0342 53.2456 21.5815L52.8498 20.6632C51.5509 21.2231 50.276 21.8296 49.027 22.4808L49.4893 23.3675C48.2582 24.0094 47.0527 24.6953 45.8747 25.4233L45.349 24.5727C44.148 25.3149 42.9752 26.1001 41.8327 26.9262L42.4186 27.7366C41.2948 28.5491 40.2007 29.4018 39.1382 30.2928L38.4956 29.5266C37.4154 30.4324 36.3674 31.3771 35.3536 32.3585L36.0491 33.077C35.0537 34.0406 34.0918 35.0402 33.1654 36.0739L32.4207 35.4065C31.4809 36.4551 30.5771 37.5381 29.7112 38.6534L30.5011 39.2666C29.6522 40.36 28.8405 41.485 28.0677 42.6396L27.2366 42.0834C26.4543 43.2523 25.7112 44.4511 25.0094 45.6778L25.8774 46.1744C25.1908 47.3746 24.5443 48.6019 23.9399 49.8545L23.0392 49.4198C22.4286 50.6853 21.8602 51.9761 21.3359 53.2901L22.2647 53.6607C21.7529 54.9433 21.2839 56.2485 20.8595 57.5745L19.9071 57.2697C19.4792 58.6064 19.0959 59.9639 18.7589 61.3402L19.7302 61.578C19.4024 62.917 19.1191 64.2741 18.8822 65.6476L17.8968 65.4776C17.6585 66.8589 17.4663 68.2564 17.3219 69.6684L18.3167 69.7702C18.1767 71.139 18.0824 72.5218 18.0352 73.9168L17.0357 73.883C17.012 74.5857 17 75.2914 17 76C17 76.7086 17.012 77.4143 17.0357 78.117L18.0352 78.0832C18.0824 79.4782 18.1767 80.861 18.3167 82.2298L17.3219 82.3316C17.4663 83.7436 17.6585 85.1411 17.8968 86.5224L18.8822 86.3524C19.1191 87.7259 19.4024 89.083 19.7302 90.422L18.7589 90.6598C19.0959 92.0361 19.4792 93.3936 19.9071 94.7303L20.8595 94.4255C21.2839 95.7514 21.7529 97.0567 22.2647 98.3393L21.3359 98.7099C21.8602 100.024 22.4286 101.315 23.0392 102.58L23.9399 102.146C24.5443 103.398 25.1908 104.625 25.8774 105.826L25.0094 106.322C25.7112 107.549 26.4543 108.748 27.2366 109.917L28.0677 109.36C28.8405 110.515 29.6523 111.64 30.5011 112.733L29.7112 113.347C30.5771 114.462 31.4809 115.545 32.4207 116.594L33.1654 115.926C34.0918 116.96 35.0537 117.959 36.0491 118.923L35.3536 119.642C36.3674 120.623 37.4154 121.568 38.4956 122.473L39.1382 121.707C40.2007 122.598 41.2948 123.451 42.4186 124.263L41.8327 125.074C42.9752 125.9 44.148 126.685 45.349 127.427L45.8747 126.577C47.0527 127.305 48.2582 127.991 49.4893 128.632L49.027 129.519C50.276 130.17 51.5509 130.777 52.8498 131.337L53.2456 130.419C54.5151 130.966 55.8078 131.468 57.1218 131.922L56.7949 132.867C58.1244 133.327 59.4753 133.739 60.8456 134.102L61.1014 133.135C62.4349 133.488 63.7871 133.793 65.1562 134.048L64.973 135.031C66.353 135.288 67.7498 135.496 69.1616 135.652L69.2714 134.658C70.6395 134.809 72.022 134.911 73.4171 134.962L73.3806 135.961C74.084 135.987 74.7906 136 75.5 136C76.2094 136 76.916 135.987 77.6194 135.961L77.5829 134.962C78.978 134.911 80.3605 134.809 81.7286 134.658L81.8384 135.652C83.2502 135.496 84.647 135.288 86.027 135.031L85.8438 134.048C87.2129 133.793 88.5651 133.488 89.8986 133.135L90.1544 134.102C91.5247 133.739 92.8756 133.327 94.2051 132.867L93.8782 131.922C95.1922 131.468 96.4848 130.966 97.7544 130.419L98.1502 131.337C99.4491 130.777 100.724 130.17 101.973 129.519L101.511 128.632C102.742 127.991 103.947 127.305 105.125 126.577L105.651 127.427C106.852 126.685 108.025 125.9 109.167 125.074L108.581 124.263C109.705 123.451 110.799 122.598 111.862 121.707L112.504 122.473C113.585 121.568 114.633 120.623 115.646 119.642L114.951 118.923C115.946 117.959 116.908 116.96 117.835 115.926L118.579 116.594C119.519 115.545 120.423 114.462 121.289 113.347L120.499 112.733C121.348 111.64 122.16 110.515 122.932 109.36L123.763 109.917C124.546 108.748 125.289 107.549 125.991 106.322L125.123 105.826C125.809 104.625 126.456 103.398 127.06 102.146L127.961 102.58C128.571 101.315 129.14 100.024 129.664 98.7099L128.735 98.3393C129.247 97.0567 129.716 95.7514 130.141 94.4255L131.093 94.7303C131.521 93.3936 131.904 92.0361 132.241 90.6598L131.27 90.422C131.598 89.083 131.881 87.7259 132.118 86.3524L133.103 86.5224C133.341 85.1411 133.534 83.7436 133.678 82.3316L132.683 82.2298C132.823 80.861 132.918 79.4782 132.965 78.0832L133.964 78.117C133.988 77.4143 134 76.7086 134 76Z"
        stroke="url(#paint1_linear_1016_8586)" stroke-width="2" stroke-linejoin="round" stroke-dasharray="4 4" />
    <path fill-rule="evenodd" clip-rule="evenodd"
        d="M236 75.5C236 117.197 202.197 151 160.5 151C118.803 151 85 117.197 85 75.5C85 33.8025 118.803 0 160.5 0C202.197 0 236 33.8025 236 75.5ZM160.5 141.94C197.194 141.94 226.94 112.194 226.94 75.5C226.94 38.8062 197.194 9.06 160.5 9.06C123.806 9.06 94.06 38.8062 94.06 75.5C94.06 112.194 123.806 141.94 160.5 141.94Z"
        fill="url(#paint2_linear_1016_8586)" />
    <path
        d="M219 76C219 75.2914 218.988 74.5857 218.964 73.883L217.965 73.9168C217.918 72.5218 217.823 71.139 217.683 69.7702L218.678 69.6684C218.534 68.2564 218.341 66.8589 218.103 65.4776L217.118 65.6476C216.881 64.2741 216.598 62.917 216.27 61.578L217.241 61.3402C216.904 59.9639 216.521 58.6064 216.093 57.2697L215.141 57.5745C214.716 56.2485 214.247 54.9433 213.735 53.6607L214.664 53.2901C214.14 51.9761 213.571 50.6853 212.961 49.4198L212.06 49.8544C211.456 48.6019 210.809 47.3746 210.123 46.1744L210.991 45.6778C210.289 44.4511 209.546 43.2523 208.763 42.0834L207.932 42.6396C207.16 41.485 206.348 40.36 205.499 39.2666L206.289 38.6534C205.423 37.5381 204.519 36.4551 203.579 35.4065L202.835 36.0739C201.908 35.0402 200.946 34.0406 199.951 33.077L200.646 32.3585C199.633 31.3771 198.585 30.4324 197.504 29.5266L196.862 30.2928C195.799 29.4018 194.705 28.5491 193.581 27.7366L194.167 26.9262C193.025 26.1001 191.852 25.3149 190.651 24.5727L190.125 25.4233C188.947 24.6953 187.742 24.0093 186.511 23.3675L186.973 22.4808C185.724 21.8296 184.449 21.2231 183.15 20.6632L182.754 21.5815C181.485 21.0342 180.192 20.5324 178.878 20.0779L179.205 19.1328C177.876 18.673 176.525 18.2608 175.154 17.8983L174.899 18.865C173.565 18.5122 172.213 18.2073 170.844 17.9521L171.027 16.969C169.647 16.7118 168.25 16.5042 166.838 16.3482L166.729 17.3421C165.36 17.1909 163.978 17.089 162.583 17.038L162.619 16.0387C161.916 16.013 161.209 16 160.5 16C159.791 16 159.084 16.013 158.381 16.0387L158.417 17.038C157.022 17.089 155.64 17.1909 154.271 17.3421L154.162 16.3482C152.75 16.5042 151.353 16.7118 149.973 16.969L150.156 17.9521C148.787 18.2073 147.435 18.5122 146.101 18.865L145.846 17.8983C144.475 18.2608 143.124 18.673 141.795 19.1328L142.122 20.0779C140.808 20.5324 139.515 21.0342 138.246 21.5815L137.85 20.6632C136.551 21.2231 135.276 21.8296 134.027 22.4808L134.489 23.3675C133.258 24.0094 132.053 24.6953 130.875 25.4233L130.349 24.5727C129.148 25.3149 127.975 26.1001 126.833 26.9262L127.419 27.7366C126.295 28.5491 125.201 29.4018 124.138 30.2928L123.496 29.5266C122.415 30.4324 121.367 31.3771 120.354 32.3585L121.049 33.077C120.054 34.0406 119.092 35.0402 118.165 36.0739L117.421 35.4065C116.481 36.4551 115.577 37.5381 114.711 38.6534L115.501 39.2666C114.652 40.36 113.84 41.485 113.068 42.6396L112.237 42.0834C111.454 43.2523 110.711 44.4511 110.009 45.6778L110.877 46.1744C110.191 47.3746 109.544 48.6019 108.94 49.8545L108.039 49.4198C107.429 50.6853 106.86 51.9761 106.336 53.2901L107.265 53.6607C106.753 54.9433 106.284 56.2485 105.86 57.5745L104.907 57.2697C104.479 58.6064 104.096 59.9639 103.759 61.3402L104.73 61.578C104.402 62.917 104.119 64.2741 103.882 65.6476L102.897 65.4776C102.659 66.8589 102.466 68.2564 102.322 69.6684L103.317 69.7702C103.177 71.139 103.082 72.5218 103.035 73.9168L102.036 73.883C102.012 74.5857 102 75.2914 102 76C102 76.7086 102.012 77.4143 102.036 78.117L103.035 78.0832C103.082 79.4782 103.177 80.861 103.317 82.2298L102.322 82.3316C102.466 83.7436 102.659 85.1411 102.897 86.5224L103.882 86.3524C104.119 87.7259 104.402 89.083 104.73 90.422L103.759 90.6598C104.096 92.0361 104.479 93.3936 104.907 94.7303L105.859 94.4255C106.284 95.7514 106.753 97.0567 107.265 98.3393L106.336 98.7099C106.86 100.024 107.429 101.315 108.039 102.58L108.94 102.146C109.544 103.398 110.191 104.625 110.877 105.826L110.009 106.322C110.711 107.549 111.454 108.748 112.237 109.917L113.068 109.36C113.84 110.515 114.652 111.64 115.501 112.733L114.711 113.347C115.577 114.462 116.481 115.545 117.421 116.594L118.165 115.926C119.092 116.96 120.054 117.959 121.049 118.923L120.354 119.642C121.367 120.623 122.415 121.568 123.496 122.473L124.138 121.707C125.201 122.598 126.295 123.451 127.419 124.263L126.833 125.074C127.975 125.9 129.148 126.685 130.349 127.427L130.875 126.577C132.053 127.305 133.258 127.991 134.489 128.632L134.027 129.519C135.276 130.17 136.551 130.777 137.85 131.337L138.246 130.419C139.515 130.966 140.808 131.468 142.122 131.922L141.795 132.867C143.124 133.327 144.475 133.739 145.846 134.102L146.101 133.135C147.435 133.488 148.787 133.793 150.156 134.048L149.973 135.031C151.353 135.288 152.75 135.496 154.162 135.652L154.271 134.658C155.64 134.809 157.022 134.911 158.417 134.962L158.381 135.961C159.084 135.987 159.791 136 160.5 136C161.209 136 161.916 135.987 162.619 135.961L162.583 134.962C163.978 134.911 165.36 134.809 166.729 134.658L166.838 135.652C168.25 135.496 169.647 135.288 171.027 135.031L170.844 134.048C172.213 133.793 173.565 133.488 174.899 133.135L175.154 134.102C176.525 133.739 177.876 133.327 179.205 132.867L178.878 131.922C180.192 131.468 181.485 130.966 182.754 130.419L183.15 131.337C184.449 130.777 185.724 130.17 186.973 129.519L186.511 128.632C187.742 127.991 188.947 127.305 190.125 126.577L190.651 127.427C191.852 126.685 193.025 125.9 194.167 125.074L193.581 124.263C194.705 123.451 195.799 122.598 196.862 121.707L197.504 122.473C198.585 121.568 199.633 120.623 200.646 119.642L199.951 118.923C200.946 117.959 201.908 116.96 202.835 115.926L203.579 116.594C204.519 115.545 205.423 114.462 206.289 113.347L205.499 112.733C206.348 111.64 207.16 110.515 207.932 109.36L208.763 109.917C209.546 108.748 210.289 107.549 210.991 106.322L210.123 105.826C210.809 104.625 211.456 103.398 212.06 102.146L212.961 102.58C213.571 101.315 214.14 100.024 214.664 98.7099L213.735 98.3393C214.247 97.0567 214.716 95.7514 215.141 94.4255L216.093 94.7303C216.521 93.3936 216.904 92.0361 217.241 90.6598L216.27 90.422C216.598 89.083 216.881 87.7259 217.118 86.3524L218.103 86.5224C218.341 85.1411 218.534 83.7436 218.678 82.3316L217.683 82.2298C217.823 80.861 217.918 79.4782 217.965 78.0832L218.964 78.117C218.988 77.4143 219 76.7086 219 76Z"
        stroke="url(#paint3_linear_1016_8586)" stroke-width="2" stroke-linejoin="round" stroke-dasharray="4 4" />
    <path fill-rule="evenodd" clip-rule="evenodd"
        d="M118 115.482C127.318 104.996 133 91.0492 133 75.7408C133 60.4324 127.318 46.4857 118 36C108.682 46.4857 103 60.4324 103 75.7408C103 91.0492 108.682 104.996 118 115.482Z"
        fill="#CAECFF" />
    <g filter="url(#filter0_d_1016_8586)">
        <path
            d="M154.031 139.925C155.991 135.193 157 130.122 157 125C157 114.657 152.891 104.737 145.577 97.4228C138.263 90.1089 128.343 86 118 86C107.657 86 97.7368 90.1089 90.4228 97.4228C83.1089 104.737 79 114.657 79 125C79 130.122 80.0088 135.193 81.9687 139.925C83.9286 144.656 86.8014 148.956 90.4228 152.577C94.0443 156.199 98.3436 159.071 103.075 161.031C107.807 162.991 112.878 164 118 164C123.122 164 128.193 162.991 132.925 161.031C137.656 159.071 141.956 156.199 145.577 152.577C149.199 148.956 152.071 144.656 154.031 139.925Z"
            fill="white" />
        <path fill-rule="evenodd" clip-rule="evenodd"
            d="M102.374 122.374C103.824 120.923 106.176 120.923 107.626 122.374L113.667 128.414L128.374 113.707C129.824 112.256 132.176 112.256 133.626 113.707C135.077 115.157 135.077 117.509 133.626 118.96L116.293 136.293C115.597 136.99 114.652 137.381 113.667 137.381C112.682 137.381 111.737 136.99 111.04 136.293L102.374 127.626C100.923 126.176 100.923 123.824 102.374 122.374ZM88.8318 137.082C90.4184 140.912 92.7439 144.393 95.6756 147.324C98.6073 150.256 102.088 152.582 105.918 154.168C109.749 155.755 113.854 156.571 118 156.571C122.146 156.571 126.251 155.755 130.082 154.168C133.912 152.582 137.393 150.256 140.324 147.324C143.256 144.393 145.582 140.912 147.168 137.082C148.755 133.251 149.571 129.146 149.571 125C149.571 116.627 146.245 108.596 140.324 102.676C134.404 96.7548 126.373 93.4286 118 93.4286C109.627 93.4286 101.596 96.7548 95.6756 102.676C89.7548 108.596 86.4286 116.627 86.4286 125C86.4286 129.146 87.2452 133.251 88.8318 137.082ZM90.4228 152.577C86.8014 148.956 83.9286 144.656 81.9687 139.925C80.0088 135.193 79 130.122 79 125C79 114.657 83.1089 104.737 90.4228 97.4228C97.7368 90.1089 107.657 86 118 86C128.343 86 138.263 90.1089 145.577 97.4228C152.891 104.737 157 114.657 157 125C157 130.122 155.991 135.193 154.031 139.925C152.071 144.656 149.199 148.956 145.577 152.577C141.956 156.199 137.656 159.071 132.925 161.031C128.193 162.991 123.122 164 118 164C112.878 164 107.807 162.991 103.075 161.031C98.3436 159.071 94.0443 156.199 90.4228 152.577Z"
            fill="url(#paint4_linear_1016_8586)" />
    </g>
    <defs>
        <filter id="filter0_d_1016_8586" x="69" y="80" width="98" height="98" filterUnits="userSpaceOnUse"
            color-interpolation-filters="sRGB">
            <feFlood flood-opacity="0" result="BackgroundImageFix" />
            <feColorMatrix in="SourceAlpha" type="matrix" values="0 0 0 0 0 0 0 0 0 0 0 0 0 0 0 0 0 0 127 0"
                result="hardAlpha" />
            <feOffset dy="4" />
            <feGaussianBlur stdDeviation="5" />
            <feComposite in2="hardAlpha" operator="out" />
            <feColorMatrix type="matrix" values="0 0 0 0 0 0 0 0 0 0 0 0 0 0 0 0 0 0 0.15 0" />
            <feBlend mode="normal" in2="BackgroundImageFix" result="effect1_dropShadow_1016_8586" />
            <feBlend mode="normal" in="SourceGraphic" in2="effect1_dropShadow_1016_8586" result="shape" />
        </filter>
        <linearGradient id="paint0_linear_1016_8586" x1="3.77501" y1="132.125" x2="141.94" y2="15.1"
            gradientUnits="userSpaceOnUse">
            <stop stop-color="#6ACAFF" />
            <stop offset="1" stop-color="#88F1BB" />
        </linearGradient>
        <linearGradient id="paint1_linear_1016_8586" x1="13.4261" y1="126.284" x2="135.561" y2="25.4664"
            gradientUnits="userSpaceOnUse">
            <stop stop-color="#6ACAFF" />
            <stop offset="1" stop-color="#88F1BB" />
        </linearGradient>
        <linearGradient id="paint2_linear_1016_8586" x1="88.775" y1="132.125" x2="226.94" y2="15.1"
            gradientUnits="userSpaceOnUse">
            <stop stop-color="#6ACAFF" />
            <stop offset="1" stop-color="#88F1BB" />
        </linearGradient>
        <linearGradient id="paint3_linear_1016_8586" x1="98.4261" y1="126.284" x2="220.561" y2="25.4664"
            gradientUnits="userSpaceOnUse">
            <stop stop-color="#6ACAFF" />
            <stop offset="1" stop-color="#88F1BB" />
        </linearGradient>
        <linearGradient id="paint4_linear_1016_8586" x1="75.8977" y1="158.239" x2="157" y2="89.5454"
            gradientUnits="userSpaceOnUse">
            <stop stop-color="#6FD1F4" />
            <stop offset="1" stop-color="#73D6EC" />
        </linearGradient>
    </defs>
</svg>