<svg xmlns="http://www.w3.org/2000/svg" width="24" height="24" fill="currentColor" viewBox="0 0 24 24">
  <path d="M12 7.283a6.027 6.027 0 0 1 1.74 2.094 5.844 5.844 0 0 1 0 5.244A6.028 6.028 0 0 1 12 16.715a6.029 6.029 0 0 1-1.74-2.094 5.845 5.845 0 0 1 0-5.244A6.028 6.028 0 0 1 12 7.283Zm-.791-.514a6.893 6.893 0 0 0-1.834 2.352A6.7 6.7 0 0 0 8.726 12c0 .995.22 1.977.649 2.88a6.894 6.894 0 0 0 1.832 2.351A6.329 6.329 0 0 1 8.125 18a6.325 6.325 0 0 1-3.067-.822 6.091 6.091 0 0 1-2.24-2.195A5.865 5.865 0 0 1 2 11.998a5.86 5.86 0 0 1 .82-2.984 6.092 6.092 0 0 1 2.24-2.193A6.323 6.323 0 0 1 8.128 6a6.324 6.324 0 0 1 3.08.768Zm1.583 10.463a6.893 6.893 0 0 0 1.832-2.35c.429-.904.65-1.886.649-2.88a6.702 6.702 0 0 0-.649-2.881 6.895 6.895 0 0 0-1.833-2.352A6.328 6.328 0 0 1 15.872 6a6.323 6.323 0 0 1 3.068.82 6.091 6.091 0 0 1 2.24 2.194 5.86 5.86 0 0 1 .82 2.985 5.865 5.865 0 0 1-.818 2.984 6.092 6.092 0 0 1-2.24 2.195 6.326 6.326 0 0 1-3.067.822 6.329 6.329 0 0 1-3.082-.768Z"/>
</svg>
