<svg width="12" height="18" viewBox="0 0 12 18" fill="none" xmlns="http://www.w3.org/2000/svg">
<g opacity="0.6">
<mask id="mask0_665_8243" style="mask-type:luminance" maskUnits="userSpaceOnUse" x="0" y="6" width="12" height="6">
<path d="M0.841797 6.35864H11.3986V11.8788H0.841797V6.35864Z" fill="white"/>
</mask>
<g mask="url(#mask0_665_8243)">
<path d="M6.12124 6.35864L0.841797 8.75971L6.12124 11.8788L11.3986 8.75971L6.12124 6.35864Z" fill="#010101"/>
</g>
</g>
<g opacity="0.45">
<mask id="mask1_665_8243" style="mask-type:luminance" maskUnits="userSpaceOnUse" x="0" y="0" width="7" height="12">
<path d="M0.841797 0H6.12124V11.8788H0.841797V0Z" fill="white"/>
</mask>
<g mask="url(#mask1_665_8243)">
<path d="M0.841797 8.75965L6.12124 11.8788V0L0.841797 8.75965Z" fill="#010101"/>
</g>
</g>
<g opacity="0.8">
<mask id="mask2_665_8243" style="mask-type:luminance" maskUnits="userSpaceOnUse" x="6" y="0" width="6" height="12">
<path d="M6.12109 0H11.4005V11.8788H6.12109V0Z" fill="white"/>
</mask>
<g mask="url(#mask2_665_8243)">
<path d="M6.12109 0V11.8788L11.3985 8.75965L6.12109 0Z" fill="#010101"/>
</g>
</g>
<g opacity="0.45">
<mask id="mask3_665_8243" style="mask-type:luminance" maskUnits="userSpaceOnUse" x="0" y="9" width="7" height="9">
<path d="M0.841797 9.75989H6.12124V17.1976H0.841797V9.75989Z" fill="white"/>
</mask>
<g mask="url(#mask3_665_8243)">
<path d="M0.841797 9.75989L6.12124 17.1976V12.879L0.841797 9.75989Z" fill="#010101"/>
</g>
</g>
<g opacity="0.8">
<mask id="mask4_665_8243" style="mask-type:luminance" maskUnits="userSpaceOnUse" x="6" y="9" width="6" height="9">
<path d="M6.12109 9.75989H11.4026V17.1976H6.12109V9.75989Z" fill="white"/>
</mask>
<g mask="url(#mask4_665_8243)">
<path d="M6.12109 12.879V17.1976L11.4026 9.75989L6.12109 12.879Z" fill="#010101"/>
</g>
</g>
</svg>

