<svg xmlns="http://www.w3.org/2000/svg" width="24" height="24" fill="currentColor" viewBox="0 0 24 24">
  <path fill-rule="evenodd" d="M7.547 7.385a.674.674 0 0 1-.947-.072.676.676 0 0 1 .075-.947l.882-.754A6.635 6.635 0 0 1 9.663 4.4a7.084 7.084 0 0 1 4.949.094 6.65 6.65 0 0 1 2.263 1.48h.003l.059.062a7.264 7.264 0 0 1 0 10.27l-1.529 1.531a2.863 2.863 0 0 1-4.045 0 2.858 2.858 0 0 1 0-4.044l1.55-1.55a1.517 1.517 0 0 0 0-2.143l-.002-.003a1.518 1.518 0 0 0-1.076-.443c-.402 0-.788.158-1.073.443l-1.657 1.66a5.744 5.744 0 0 0-1.416 5.788.669.669 0 0 1-.046.512.663.663 0 0 1-.391.33.68.68 0 0 1-.513-.045.677.677 0 0 1-.33-.394 7.094 7.094 0 0 1 1.746-7.14l1.66-1.658a2.857 2.857 0 0 1 4.043 0l.002.003h.003a2.866 2.866 0 0 1 0 4.04h-.002l-1.55 1.55a1.527 1.527 0 0 0 0 2.148 1.522 1.522 0 0 0 2.148 0l1.531-1.532a5.922 5.922 0 0 0 0-8.374l-.061-.061A5.378 5.378 0 0 0 14.12 5.74a5.754 5.754 0 0 0-2.114-.4c-.646 0-1.287.107-1.899.322a5.308 5.308 0 0 0-1.679.968l-.882.754Zm-2.21 7.41a.686.686 0 0 1-.258.446.673.673 0 0 1-1.073-.625 9.414 9.414 0 0 1 .899-2.924 9.773 9.773 0 0 1 1.888-2.59L8.34 7.574v-.002a5.014 5.014 0 0 1 7.046.016 5.067 5.067 0 0 1 0 7.172l-1.53 1.529a.667.667 0 0 1-1.143-.475.66.66 0 0 1 .197-.472l1.529-1.529a3.732 3.732 0 0 0 0-5.273 3.671 3.671 0 0 0-5.158-.01l-1.548 1.525a8.447 8.447 0 0 0-1.628 2.235 8.06 8.06 0 0 0-.77 2.505Zm6.254 4.48a.657.657 0 0 0-.295-.418 3.32 3.32 0 0 1-.595-.48 3.573 3.573 0 0 1-1.036-2.525 3.783 3.783 0 0 1 1.116-2.677v-.002l1.53-1.526a.672.672 0 0 0-.948-.95l-1.529 1.529a5.129 5.129 0 0 0-1.51 3.624 4.896 4.896 0 0 0 1.425 3.47 4.5 4.5 0 0 0 .831.668.669.669 0 0 0 1.011-.713Z" clip-rule="evenodd"/>
</svg>
