<svg xmlns="http://www.w3.org/2000/svg" width="24" height="24" fill="currentColor" viewBox="0 0 24 24">
  <path fill-rule="evenodd" d="M12 4c4.411 0 8 3.589 8 8s-3.589 8-8 8-8-3.589-8-8 3.589-8 8-8Zm1.284 5.962H11.28l-.944 4.463a5.68 5.68 0 0 0-.082.493c-.018.151-.027.29-.027.418 0 .294.038.545.115.754.078.209.183.38.316.516.134.136.292.236.473.3a1.775 1.775 0 0 0 1.12.009 1.397 1.397 0 0 0 .826-.706 1.66 1.66 0 0 0 .166-.642c-.05.022-.104.042-.162.06a1.07 1.07 0 0 1-.287.028c-.194 0-.336-.038-.427-.112-.09-.075-.136-.21-.136-.404 0-.073.004-.146.01-.221.007-.075.021-.151.044-.228l1-4.728Zm-.625-2.963c-.154 0-.298.03-.432.089a1.122 1.122 0 0 0-.584 1.457 1.06 1.06 0 0 0 .584.578 1.1 1.1 0 0 0 .432.084 1.1 1.1 0 0 0 .431-.084c.134-.057.252-.134.354-.231a1.08 1.08 0 0 0 .241-1.21 1.15 1.15 0 0 0-.595-.594 1.054 1.054 0 0 0-.431-.089Z" clip-rule="evenodd"/>
</svg>
