<svg viewBox="0 0 34 22" fill="none" xmlns="http://www.w3.org/2000/svg">
    <path
        d="M16.9992 2.3525C18.2507 3.38089 19.2624 4.69384 19.9576 6.19198C20.6528 7.69013 21.0133 9.33419 21.0119 10.9997C21.0128 12.6648 20.6521 14.3082 19.9569 15.8057C19.2617 17.3033 18.2503 18.6157 16.9992 19.6438C15.7479 18.6155 14.7364 17.3028 14.0412 15.805C13.346 14.3072 12.9854 12.6634 12.9866 10.9981C12.9854 9.33285 13.346 7.6891 14.0412 6.19126C14.7364 4.69341 15.7479 3.38072 16.9992 2.3525ZM15.6545 1.41075C14.3297 2.59452 13.2663 4.06532 12.5377 5.72147C11.8092 7.37762 11.4328 9.17964 11.4347 11.003C11.4329 12.8255 11.809 14.6268 12.537 16.2823C13.265 17.9378 14.3276 19.4083 15.6514 20.592C14.0522 21.5318 12.2458 22.017 10.4119 21.9995C8.57805 21.982 6.78047 21.4624 5.19789 20.4922C3.61531 19.522 2.30285 18.1352 1.39096 16.4694C0.47908 14.8037 -0.000463802 12.9171 3.366e-07 10.9972C0.000464475 9.07733 0.480921 7.19101 1.39361 5.52576C2.3063 3.8605 3.61943 2.47431 5.20248 1.50498C6.78553 0.535652 8.58336 0.0169396 10.4173 0.000407915C12.2512 -0.0161238 14.0557 0.470101 15.6545 1.41075ZM18.3471 20.592C19.6709 19.4083 20.7335 17.9378 21.4615 16.2823C22.1895 14.6268 22.5656 12.8255 22.5638 11.003C22.5657 9.17964 22.1893 7.37762 21.4607 5.72147C20.7322 4.06532 19.6687 2.59452 18.344 1.41075C19.9428 0.470101 21.7489 -0.0161238 23.5827 0.000407915C25.4166 0.0169396 27.2145 0.535652 28.7975 1.50498C30.3806 2.47431 31.6937 3.8605 32.6064 5.52576C33.5191 7.19101 33.9995 9.07733 34 10.9972C34.0005 12.9171 33.5209 14.8037 32.609 16.4694C31.6972 18.1352 30.3847 19.522 28.8021 20.4922C27.2195 21.4624 25.422 21.982 23.5881 21.9995C21.7542 22.017 19.9478 21.5318 18.3486 20.592H18.3471Z"
        fill="#88F1BB" />
</svg>