<svg width="14" height="14" viewBox="0 0 14 14" fill="none" xmlns="http://www.w3.org/2000/svg">
    <path
        d="M1.4 9.1V0.7C1.4 0.514348 1.47375 0.336301 1.60503 0.205025C1.7363 0.0737498 1.91435 0 2.1 0H13.3C13.4857 0 13.6637 0.0737498 13.795 0.205025C13.9263 0.336301 14 0.514348 14 0.7V11.9C14 12.457 13.7788 12.9911 13.3849 13.3849C12.9911 13.7788 12.457 14 11.9 14H2.1C1.54305 14 1.0089 13.7788 0.615076 13.3849C0.221249 12.9911 0 12.457 0 11.9V10.5H11.2V11.9C11.2 12.0857 11.2737 12.2637 11.405 12.395C11.5363 12.5263 11.7143 12.6 11.9 12.6C12.0857 12.6 12.2637 12.5263 12.395 12.395C12.5263 12.2637 12.6 12.0857 12.6 11.9V9.1H1.4Z"
        fill="#88F1BB" />
</svg>