<svg width="142" height="50" viewBox="0 0 142 50" fill="none" xmlns="http://www.w3.org/2000/svg">
    <path fill-rule="evenodd" clip-rule="evenodd"
        d="M50 25C50 38.8071 38.8071 50 25 50C11.1929 50 0 38.8071 0 25C0 11.1929 11.1929 0 25 0C38.8071 0 50 11.1929 50 25ZM24.9999 45.4167C21.3333 29.9167 9.58326 25.3472 4.1666 25H24.9999V45.4167ZM45.8333 25.0001C40.4166 24.6529 28.6666 20.0834 25 4.58342V25.0001H45.8333Z"
        fill="url(#paint0_linear_489_4246)" />
    <path d="M69.0745 19.5424V27.3012L63.0661 19.5424H60V30.4265H62.4777V22.5122L68.61 30.4265H71.5368V19.5424H69.0745Z"
        fill="#224059" />
    <path
        d="M83.8631 30.4265H86.4646L81.277 19.5424H78.6135L73.4258 30.4265H76.0274L77.0649 28.2186H82.8255L83.8631 30.4265ZM78.025 26.1972L79.9452 22.1079L81.8654 26.1972H78.025Z"
        fill="#224059" />
    <path d="M95.7748 19.5424H84.9194V21.657H89.1005V30.4265H91.5782V21.657H95.7748V19.5424Z" fill="#224059" />
    <path d="M97.6563 30.4265H100.119V19.5424H97.6563V30.4265Z" fill="#224059" />
    <path
        d="M108.168 30.6131C111.962 30.6131 114.316 28.3119 114.316 25.0155C114.316 21.7037 111.946 19.3558 108.168 19.3558C104.389 19.3558 102.004 21.7037 102.004 25.0155C102.004 28.3274 104.389 30.6131 108.168 30.6131ZM108.152 28.4518C105.876 28.4518 104.529 27.0058 104.529 25.0155C104.529 23.0098 105.907 21.5171 108.152 21.5171C110.413 21.5171 111.791 23.0098 111.791 25.0155C111.791 27.0213 110.444 28.4518 108.152 28.4518Z"
        fill="#224059" />
    <path
        d="M125.179 19.5424V27.3012L119.17 19.5424H116.104V30.4265H118.582V22.5122L124.714 30.4265H127.641V19.5424H125.179Z"
        fill="#224059" />
    <path
        d="M138.144 23.6784L141.489 21.7037V19.5424H131.377V21.7037H138.283L134.737 23.9893L134.97 25.4665C135.388 25.3732 136.224 25.2488 137.029 25.2488C138.578 25.2488 139.429 25.7308 139.429 26.8192C139.429 27.9542 138.454 28.4829 137.014 28.4829C135.388 28.4829 133.529 27.8143 131.919 26.5082L130.974 28.6384C132.43 29.7423 134.83 30.6441 137.168 30.6441C139.786 30.6441 142 29.5091 142 26.8503C142 24.7046 140.42 23.7561 138.144 23.6784Z"
        fill="#224059" />
    <defs>
        <linearGradient id="paint0_linear_489_4246" x1="0" y1="0" x2="32.2147" y2="-9.6114"
            gradientUnits="userSpaceOnUse">
            <stop stop-color="#69C9FF" />
            <stop offset="1" stop-color="#88F1BB" />
        </linearGradient>
    </defs>
</svg>