<svg width="28" height="28" viewBox="0 0 28 28" fill="none" xmlns="http://www.w3.org/2000/svg">
<path fill-rule="evenodd" clip-rule="evenodd" d="M14 0C21.72 0 28 6.28 28 14C28 21.72 21.72 28 14 28C6.28 28 0 21.72 0 14C0 6.28 6.28 0 14 0ZM16.2474 10.433H12.7402L11.0871 18.244C11.0236 18.5532 10.9762 18.8405 10.9445 19.1059C10.9129 19.3711 10.8971 19.6147 10.8971 19.8376C10.8971 20.3524 10.964 20.7919 11.0992 21.1571C11.2344 21.5224 11.4182 21.8231 11.652 22.0604C11.8856 22.2979 12.1619 22.4731 12.4785 22.5839C12.7951 22.6934 13.1359 22.7495 13.5012 22.7495C13.8176 22.7495 14.1305 22.6995 14.4397 22.601C14.749 22.5024 15.0266 22.3489 15.2725 22.1432C15.5172 21.9376 15.7217 21.677 15.8848 21.3653C16.0467 21.0524 16.1441 20.6774 16.1758 20.2416C16.0881 20.2805 15.9932 20.3158 15.8908 20.3487C15.7873 20.3805 15.6205 20.3963 15.3904 20.3963C15.0508 20.3963 14.8014 20.3305 14.6418 20.2002C14.4836 20.0688 14.4045 19.8338 14.4045 19.493C14.4045 19.365 14.4105 19.2373 14.4226 19.1059C14.4336 18.9756 14.4591 18.8416 14.4994 18.7076L16.2474 10.433ZM15.1531 5.249C14.884 5.249 14.632 5.30017 14.3982 5.40369C14.1646 5.5072 13.9601 5.64842 13.7859 5.82615C13.6119 6.00389 13.4755 6.20955 13.3757 6.4445C13.2771 6.67829 13.2271 6.92907 13.2271 7.1994C13.2271 7.46952 13.2771 7.7203 13.3757 7.9541C13.4755 8.18789 13.6119 8.39004 13.7859 8.56035C13.9601 8.73086 14.1646 8.86602 14.3982 8.96465C14.632 9.06328 14.8839 9.11309 15.1531 9.11309C15.422 9.11309 15.6742 9.06328 15.9078 8.96465C16.1416 8.86601 16.3486 8.73086 16.5264 8.56035C16.7041 8.39004 16.8453 8.18789 16.9488 7.9541C17.051 7.72031 17.1033 7.46953 17.1033 7.1994C17.1033 6.92909 17.051 6.6783 16.9488 6.4445C16.8453 6.20954 16.7041 6.00388 16.5264 5.82615C16.3486 5.64842 16.1416 5.5072 15.9078 5.40369C15.6742 5.30017 15.4221 5.249 15.1531 5.249Z" fill="#88F1BB"/>
</svg>
