<svg width="16" height="16" viewBox="0 0 16 16" fill="none" xmlns="http://www.w3.org/2000/svg">
    <path
        d="M8 0.000137068C5.87827 0.000137068 3.84348 0.842954 2.34312 2.34324C0.842823 3.84352 0 5.87846 0 8.00007C0 10.1217 0.842823 12.1565 2.34312 13.6569C3.84341 15.1572 5.87837 16 8 16C10.1216 16 12.1565 15.1572 13.6569 13.6569C15.1572 12.1566 16 10.1217 16 8.00007C16 6.59582 15.6304 5.21622 14.9283 3.99993C14.2261 2.78384 13.2161 1.77388 12 1.07171C10.7838 0.369636 9.40433 0.000137068 8 0.000137068ZM8.79996 8.00007C8.8013 8.21275 8.71773 8.41712 8.568 8.56805L6.16796 10.9681C5.96198 11.1444 5.68072 11.2044 5.42077 11.1276C5.16067 11.0507 4.95735 10.8474 4.88048 10.5873C4.80347 10.3273 4.86361 10.046 5.03999 9.8401L7.20002 7.67207V4.00004C7.20002 3.71424 7.35244 3.45013 7.59994 3.30723C7.84744 3.16433 8.15253 3.16433 8.40004 3.30723C8.64755 3.45013 8.79995 3.71424 8.79995 4.00004L8.79996 8.00007Z"
        fill="#ACC5DA" />
</svg>