<svg viewBox="0 0 22 21" fill="none" xmlns="http://www.w3.org/2000/svg">
    <path fill-rule="evenodd" clip-rule="evenodd"
        d="M1.55432 20.5275C0.773768 20.5275 0.208837 19.7824 0.419506 19.0308L1.85643 13.9044C2.14166 12.8868 3.0693 12.1834 4.1261 12.1834L10.9999 12.1834L18.32 12.1837C19.1125 12.1837 19.8082 12.7112 20.0221 13.4743L21.5803 19.031C21.7911 19.7826 21.2261 20.5278 20.4455 20.5278L1.55432 20.5275ZM10.9998 9.34307C8.61167 9.34307 6.67553 7.33228 6.67553 4.85224C6.67553 2.37196 8.61159 0.361084 10.9998 0.361084C13.388 0.361084 15.324 2.37187 15.324 4.85224C15.324 7.3322 13.388 9.34307 10.9998 9.34307Z"
        fill="#88F1BB" />
</svg>