<svg viewBox="0 0 28 28" fill="none" xmlns="http://www.w3.org/2000/svg">
    <path
        d="M0 15.417H7.70594C7.9467 19.9045 9.36693 24.2469 11.8213 28C8.747 27.5137 5.91938 26.015 3.78054 23.7383C1.6417 21.4617 0.31223 18.5354 0 15.417ZM0 12.583C0.31223 9.4646 1.6417 6.53831 3.78054 4.26166C5.91938 1.98501 8.747 0.486348 11.8213 0C9.36693 3.75309 7.9467 8.09555 7.70594 12.583H0ZM27.9986 12.583H20.2926C20.0519 8.09555 18.6317 3.75309 16.1773 0C19.2516 0.486348 22.0792 1.98501 24.2181 4.26166C26.3569 6.53831 27.6864 9.4646 27.9986 12.583ZM27.9986 15.417C27.6864 18.5354 26.3569 21.4617 24.2181 23.7383C22.0792 26.015 19.2516 27.5137 16.1773 28C18.6317 24.2469 20.0519 19.9045 20.2926 15.417H27.9986ZM10.5241 15.417H17.4745C17.2429 19.2422 16.0469 22.9448 13.9993 26.1749C11.9517 22.9448 10.7557 19.2422 10.5241 15.417ZM10.5241 12.583C10.7557 8.75782 11.9517 5.05525 13.9993 1.8251C16.0469 5.05525 17.2429 8.75782 17.4745 12.583H10.5241Z"
        fill="#88F1BB" />
</svg>