<svg xmlns="http://www.w3.org/2000/svg" width="24" height="24" fill="currentColor" viewBox="0 0 24 24">
  <path fill-rule="evenodd" d="M7.333 4C6.045 4 5 5.102 5 6.462v11.076C5 18.898 6.045 20 7.333 20h9.334C17.955 20 19 18.898 19 17.538V6.462C19 5.102 17.955 4 16.667 4H7.333Zm1.459 3.077c-.484 0-.875.413-.875.923s.391.923.875.923h6.416c.484 0 .875-.413.875-.923s-.391-.923-.875-.923H8.792Zm-.875 4.615c0-.51.391-.923.875-.923h6.416c.484 0 .875.413.875.923s-.391.923-.875.923H8.792c-.484 0-.875-.413-.875-.923Zm.875 2.77c-.484 0-.875.413-.875.923s.391.923.875.923h3.5c.483 0 .875-.414.875-.923 0-.51-.392-.924-.875-.924h-3.5Z" clip-rule="evenodd"/>
</svg>
