<svg xmlns="http://www.w3.org/2000/svg" width="24" height="24" fill="currentColor" viewBox="0 0 24 24">
  <path d="m10.731 5 1.6 1.556H19.2c.212 0 .416.082.566.227.15.146.234.344.234.55v10.89a.767.767 0 0 1-.234.55.812.812 0 0 1-.566.227H4.8a.812.812 0 0 1-.566-.228.767.767 0 0 1-.234-.55V5.778c0-.206.084-.404.234-.55A.812.812 0 0 1 4.8 5h5.931ZM12 9.667a1.63 1.63 0 0 0-.974.321c-.28.209-.48.5-.571.832a1.51 1.51 0 0 0 .067.998c.135.316.373.58.678.751v3.32h1.6v-3.32a1.57 1.57 0 0 0 .679-.752c.135-.316.158-.667.067-.998a1.554 1.554 0 0 0-.572-.831A1.63 1.63 0 0 0 12 9.667Z"/>
</svg>
