<svg xmlns="http://www.w3.org/2000/svg" width="24" height="24" fill="currentColor" viewBox="0 0 24 24">
  <path d="M13.58 10.8a.75.75 0 0 0-1.053 0l-.527.517a1.49 1.49 0 0 1-1.058.448 1.51 1.51 0 0 1-1.066-.43 1.464 1.464 0 0 1-.436-1.048 1.445 1.445 0 0 1 .454-1.042l4.192-4.126a4.913 4.913 0 0 1 2.968.261 4.818 4.818 0 0 1 2.25 1.922 4.701 4.701 0 0 1-.47 5.56l-1.569 1.564L13.58 10.8ZM5.417 6.395a4.907 4.907 0 0 1 5.964-.687l-2.54 2.501a2.908 2.908 0 0 0-.875 2.037c-.01.765.285 1.504.82 2.058a3 3 0 0 0 2.05.909 3.007 3.007 0 0 0 2.11-.758l.107-.1 3.16 3.107-3.16 3.109c-.28.275-.658.429-1.053.429a1.5 1.5 0 0 1-1.053-.429l-5.53-5.44A4.724 4.724 0 0 1 4 9.762c0-1.263.51-2.475 1.418-3.368Z"/>
</svg>
