<svg xmlns="http://www.w3.org/2000/svg" width="24" height="24" fill="currentColor" viewBox="0 0 24 24">
  <path d="M4 12.81h4.403c.138 2.564.95 5.045 2.352 7.19a8.026 8.026 0 0 1-4.595-2.435A8.127 8.127 0 0 1 4 12.81Zm0-1.62a8.127 8.127 0 0 1 2.16-4.755A8.026 8.026 0 0 1 10.755 4a14.564 14.564 0 0 0-2.352 7.19H4Zm16 0h-4.404A14.564 14.564 0 0 0 13.244 4a8.026 8.026 0 0 1 4.595 2.435 8.127 8.127 0 0 1 2.16 4.755Zm0 1.62a8.127 8.127 0 0 1-2.161 4.755A8.026 8.026 0 0 1 13.244 20a14.564 14.564 0 0 0 2.352-7.19h4.403Zm-9.986 0h3.971A12.944 12.944 0 0 1 12 18.957a12.944 12.944 0 0 1-1.986-6.147Zm0-1.62A12.944 12.944 0 0 1 12 5.043a12.944 12.944 0 0 1 1.985 6.147h-3.971Z"/>
</svg>
