<svg width="1716" height="278" viewBox="0 0 1716 278" fill="none" xmlns="http://www.w3.org/2000/svg">
    <g opacity="0.5">
        <path
            d="M1501.58 359.184L1501.58 359.684L1502.08 359.684L1597.15 359.684L1597.65 359.684L1597.65 359.184C1597.65 256.966 1514.78 174.102 1412.57 174.102C1310.35 174.102 1227.49 256.966 1227.49 359.184L1227.49 359.684L1227.99 359.684L1323.05 359.684L1323.55 359.684L1323.55 359.184C1323.55 310.02 1363.4 270.166 1412.57 270.166C1461.73 270.166 1501.58 310.02 1501.58 359.184Z"
            stroke="url(#paint0_linear_268_2947)" />
        <path
            d="M1501.59 359.184L1501.59 359.684L1502.09 359.684L1597.15 359.684L1597.65 359.684L1597.65 359.184C1597.65 256.966 1514.78 174.102 1412.57 174.102C1310.35 174.102 1227.49 256.966 1227.49 359.184L1227.49 359.684L1227.99 359.684L1323.05 359.684L1323.55 359.684L1323.55 359.184C1323.55 310.02 1363.4 270.166 1412.57 270.166C1461.73 270.166 1501.59 310.02 1501.59 359.184Z"
            stroke="url(#paint1_linear_268_2947)" />
        <path
            d="M1558.74 359.094L1558.74 359.594L1559.24 359.594L1714.38 359.594L1714.88 359.594L1714.88 359.094C1714.88 192.528 1579.79 57.5 1413.14 57.4999C1246.5 57.4999 1111.41 192.528 1111.41 359.094L1111.41 359.594L1111.91 359.594L1267.05 359.594L1267.55 359.594L1267.55 359.094C1267.55 278.723 1332.74 213.57 1413.14 213.57C1493.55 213.57 1558.74 278.723 1558.74 359.094Z"
            stroke="url(#paint2_linear_268_2947)" />
        <path
            d="M1558.74 359.094L1558.74 359.594L1559.24 359.594L1714.38 359.594L1714.88 359.594L1714.88 359.094C1714.88 192.528 1579.79 57.5 1413.14 57.4999C1246.5 57.4999 1111.41 192.528 1111.41 359.094L1111.41 359.594L1111.91 359.594L1267.05 359.594L1267.55 359.594L1267.55 359.094C1267.55 278.723 1332.74 213.57 1413.14 213.57C1493.55 213.57 1558.74 278.723 1558.74 359.094Z"
            stroke="url(#paint3_linear_268_2947)" />
        <path opacity="0.3"
            d="M551.825 422.094L551.825 422.594L552.325 422.594L707.467 422.594L707.967 422.594L707.967 422.094C707.967 255.528 572.876 120.5 406.233 120.5C239.591 120.5 104.5 255.528 104.5 422.094L104.5 422.594L105 422.594L260.141 422.594L260.641 422.594L260.641 422.094C260.641 341.723 325.825 276.57 406.233 276.57C486.642 276.57 551.825 341.723 551.825 422.094Z"
            stroke="url(#paint4_linear_268_2947)" />
        <path
            d="M1501.58 359.184L1501.58 359.684L1502.08 359.684L1597.15 359.684L1597.65 359.684L1597.65 359.184C1597.65 256.966 1514.78 174.102 1412.57 174.102C1310.35 174.102 1227.49 256.966 1227.49 359.184L1227.49 359.684L1227.99 359.684L1323.05 359.684L1323.55 359.684L1323.55 359.184C1323.55 310.02 1363.4 270.166 1412.57 270.166C1461.73 270.166 1501.58 310.02 1501.58 359.184Z"
            stroke="url(#paint5_linear_268_2947)" />
        <path
            d="M1501.59 359.184L1501.59 359.684L1502.09 359.684L1597.15 359.684L1597.65 359.684L1597.65 359.184C1597.65 256.966 1514.78 174.102 1412.57 174.102C1310.35 174.102 1227.49 256.966 1227.49 359.184L1227.49 359.684L1227.99 359.684L1323.05 359.684L1323.55 359.684L1323.55 359.184C1323.55 310.02 1363.4 270.166 1412.57 270.166C1461.73 270.166 1501.59 310.02 1501.59 359.184Z"
            stroke="url(#paint6_linear_268_2947)" />
        <path opacity="0.6"
            d="M1457.62 359.094L1457.62 359.594L1458.12 359.594L1613.19 359.594L1613.69 359.594L1613.69 359.094C1613.69 192.528 1478.66 57.5 1312.09 57.4999C1145.53 57.4999 1010.5 192.528 1010.5 359.094L1010.5 359.594L1011 359.594L1166.07 359.594L1166.57 359.594L1166.57 359.094C1166.57 278.723 1231.72 213.57 1312.09 213.57C1392.46 213.57 1457.62 278.723 1457.62 359.094Z"
            stroke="url(#paint7_linear_268_2947)" />
        <path opacity="0.2"
            d="M420.618 422.094L420.618 422.594L421.118 422.594L576.187 422.594L576.687 422.594L576.688 422.094C576.688 255.528 441.659 120.5 275.094 120.5C108.528 120.5 -26.5002 255.528 -26.5002 422.094L-26.5002 422.594L-26.0002 422.594L129.07 422.594L129.57 422.594L129.57 422.094C129.57 341.723 194.723 276.57 275.094 276.57C355.464 276.57 420.618 341.723 420.618 422.094Z"
            stroke="url(#paint8_linear_268_2947)" />
        <path opacity="0.5"
            d="M1501.59 359.184L1501.59 359.684L1502.09 359.684L1597.15 359.684L1597.65 359.684L1597.65 359.184C1597.65 256.966 1514.78 174.102 1412.57 174.102C1310.35 174.102 1227.49 256.966 1227.49 359.184L1227.49 359.684L1227.99 359.684L1323.05 359.684L1323.55 359.684L1323.55 359.184C1323.55 310.02 1363.4 270.166 1412.57 270.166C1461.73 270.166 1501.59 310.02 1501.59 359.184Z"
            stroke="url(#paint9_linear_268_2947)" />
        <path
            d="M464.585 422.183L464.585 422.683L465.085 422.683L560.148 422.683L560.648 422.683L560.648 422.183C560.648 319.966 477.784 237.102 375.567 237.102C273.349 237.102 190.485 319.966 190.485 422.183L190.485 422.683L190.985 422.683L286.048 422.683L286.548 422.683L286.548 422.183C286.548 373.02 326.403 333.165 375.567 333.165C424.73 333.165 464.585 373.02 464.585 422.183Z"
            stroke="url(#paint10_linear_268_2947)" />
        <path opacity="0.5"
            d="M1107.38 359.333L1107.38 359.833L1107.88 359.833L1176.85 359.833L1177.35 359.833L1177.35 359.333C1177.35 285.092 1117.17 224.907 1042.93 224.907C968.684 224.907 908.5 285.092 908.5 359.333L908.5 359.833L909 359.833L977.974 359.833L978.474 359.833L978.474 359.333C978.474 323.738 1007.33 294.882 1042.93 294.882C1078.52 294.882 1107.38 323.738 1107.38 359.333Z"
            stroke="url(#paint11_linear_268_2947)" />
        <path d="M1548.42 27.2539L1558.07 56.1952L1546.05 28.361" stroke="url(#paint12_linear_268_2947)" />
        <path d="M1545.42 87.9999V27.0952H1543.52L1541.15 85.4523" stroke="url(#paint13_linear_268_2947)" />
        <path d="M1545.58 28.5187L1549.69 26.7791V24.565L1524.86 21.8765L1545.58 27.2535"
            stroke="url(#paint14_linear_268_2947)" />
        <path d="M1545.42 23.9316L1558.39 1L1548.58 24.5642" stroke="url(#paint15_linear_268_2947)" />
        <path d="M1509.84 35.5337L1515.92 53.7608L1508.35 36.2309" stroke="url(#paint16_linear_268_2947)" />
        <path d="M1507.95 72.6852V35.4341H1506.75L1505.26 72.1872" stroke="url(#paint17_linear_268_2947)" />
        <path d="M1508.05 36.3307L1510.64 35.2351V33.8407L1495 32.1475L1508.05 35.5339"
            stroke="url(#paint18_linear_268_2947)" />
        <path d="M1507.95 33.4423L1516.12 19L1509.94 33.8407" stroke="url(#paint19_linear_268_2947)" />
        <path
            d="M1561 186C1588 168.667 1638.8 122.8 1626 77.9999C1617.94 49.7803 1587.02 35.2732 1549.5 31.5357M1446 44.747C1476.12 34.0581 1511.49 28.9258 1543 30.9995"
            stroke="url(#paint20_linear_268_2947)" />
    </g>
    <defs>
        <linearGradient id="paint0_linear_268_2947" x1="1597.15" y1="359.184" x2="1406.14" y2="473.161"
            gradientUnits="userSpaceOnUse">
            <stop stop-color="#69C9FF" />
            <stop offset="1" stop-color="#88F1BB" />
        </linearGradient>
        <linearGradient id="paint1_linear_268_2947" x1="1597.15" y1="359.184" x2="1406.14" y2="473.161"
            gradientUnits="userSpaceOnUse">
            <stop stop-color="#69C9FF" />
            <stop offset="1" stop-color="#88F1BB" />
        </linearGradient>
        <linearGradient id="paint2_linear_268_2947" x1="1714.38" y1="359.094" x2="1402.73" y2="545.144"
            gradientUnits="userSpaceOnUse">
            <stop stop-color="#69C9FF" />
            <stop offset="1" stop-color="#88F1BB" />
        </linearGradient>
        <linearGradient id="paint3_linear_268_2947" x1="1714.38" y1="359.094" x2="1402.73" y2="545.144"
            gradientUnits="userSpaceOnUse">
            <stop stop-color="#69C9FF" />
            <stop offset="1" stop-color="#88F1BB" />
        </linearGradient>
        <linearGradient id="paint4_linear_268_2947" x1="707.467" y1="422.094" x2="395.818" y2="608.144"
            gradientUnits="userSpaceOnUse">
            <stop stop-color="#69C9FF" />
            <stop offset="1" stop-color="#88F1BB" />
        </linearGradient>
        <linearGradient id="paint5_linear_268_2947" x1="1597.15" y1="359.184" x2="1406.14" y2="473.161"
            gradientUnits="userSpaceOnUse">
            <stop stop-color="#69C9FF" />
            <stop offset="1" stop-color="#88F1BB" />
        </linearGradient>
        <linearGradient id="paint6_linear_268_2947" x1="1597.15" y1="359.184" x2="1406.14" y2="473.161"
            gradientUnits="userSpaceOnUse">
            <stop stop-color="#69C9FF" />
            <stop offset="1" stop-color="#88F1BB" />
        </linearGradient>
        <linearGradient id="paint7_linear_268_2947" x1="1613.19" y1="359.094" x2="1301.61" y2="545.017"
            gradientUnits="userSpaceOnUse">
            <stop stop-color="#69C9FF" />
            <stop offset="1" stop-color="#88F1BB" />
        </linearGradient>
        <linearGradient id="paint8_linear_268_2947" x1="576.187" y1="422.094" x2="264.607" y2="608.017"
            gradientUnits="userSpaceOnUse">
            <stop stop-color="#69C9FF" />
            <stop offset="1" stop-color="#88F1BB" />
        </linearGradient>
        <linearGradient id="paint9_linear_268_2947" x1="1597.15" y1="359.184" x2="1406.14" y2="473.161"
            gradientUnits="userSpaceOnUse">
            <stop stop-color="#69C9FF" />
            <stop offset="1" stop-color="#88F1BB" />
        </linearGradient>
        <linearGradient id="paint10_linear_268_2947" x1="560.148" y1="422.183" x2="369.138" y2="536.161"
            gradientUnits="userSpaceOnUse">
            <stop stop-color="#69C9FF" />
            <stop offset="1" stop-color="#88F1BB" />
        </linearGradient>
        <linearGradient id="paint11_linear_268_2947" x1="1176.85" y1="359.333" x2="1038.26" y2="442.031"
            gradientUnits="userSpaceOnUse">
            <stop stop-color="#69C9FF" />
            <stop offset="1" stop-color="#88F1BB" />
        </linearGradient>
        <linearGradient id="paint12_linear_268_2947" x1="1558.07" y1="27.2539" x2="1549.77" y2="26.2248"
            gradientUnits="userSpaceOnUse">
            <stop stop-color="#69C9FF" />
            <stop offset="1" stop-color="#88F1BB" />
        </linearGradient>
        <linearGradient id="paint13_linear_268_2947" x1="1545.42" y1="27.0952" x2="1542.42" y2="27.0326"
            gradientUnits="userSpaceOnUse">
            <stop stop-color="#69C9FF" />
            <stop offset="1" stop-color="#88F1BB" />
        </linearGradient>
        <linearGradient id="paint14_linear_268_2947" x1="1549.69" y1="21.8765" x2="1541.93" y2="13.2173"
            gradientUnits="userSpaceOnUse">
            <stop stop-color="#69C9FF" />
            <stop offset="1" stop-color="#88F1BB" />
        </linearGradient>
        <linearGradient id="paint15_linear_268_2947" x1="1558.39" y1="1" x2="1549.53" y2="-0.454808"
            gradientUnits="userSpaceOnUse">
            <stop stop-color="#69C9FF" />
            <stop offset="1" stop-color="#88F1BB" />
        </linearGradient>
        <linearGradient id="paint16_linear_268_2947" x1="1515.92" y1="35.5337" x2="1510.69" y2="34.8855"
            gradientUnits="userSpaceOnUse">
            <stop stop-color="#69C9FF" />
            <stop offset="1" stop-color="#88F1BB" />
        </linearGradient>
        <linearGradient id="paint17_linear_268_2947" x1="1507.95" y1="35.4341" x2="1506.06" y2="35.3935"
            gradientUnits="userSpaceOnUse">
            <stop stop-color="#69C9FF" />
            <stop offset="1" stop-color="#88F1BB" />
        </linearGradient>
        <linearGradient id="paint18_linear_268_2947" x1="1510.64" y1="32.1475" x2="1505.75" y2="26.694"
            gradientUnits="userSpaceOnUse">
            <stop stop-color="#69C9FF" />
            <stop offset="1" stop-color="#88F1BB" />
        </linearGradient>
        <linearGradient id="paint19_linear_268_2947" x1="1516.12" y1="19" x2="1510.54" y2="18.0838"
            gradientUnits="userSpaceOnUse">
            <stop stop-color="#69C9FF" />
            <stop offset="1" stop-color="#88F1BB" />
        </linearGradient>
        <linearGradient id="paint20_linear_268_2947" x1="1606" y1="174" x2="1621.48" y2="67.1202"
            gradientUnits="userSpaceOnUse">
            <stop stop-color="#69C9FF" />
            <stop offset="1" stop-color="#88F1BB" stop-opacity="0.47" />
        </linearGradient>
    </defs>
</svg>