<svg width="85" height="86" viewBox="0 0 85 86" fill="none" xmlns="http://www.w3.org/2000/svg">
    <g clip-path="url(#clip0_1_10062)">
        <path opacity="0.3"
            d="M79 42.8335C79 62.9919 62.6584 79.3335 42.5 79.3335C22.3416 79.3335 6 62.9919 6 42.8335C6 22.6751 22.3416 6.33347 42.5 6.33347C62.6584 6.33347 79 22.6751 79 42.8335Z"
            stroke="url(#paint0_linear_1_10062)" />
        <path
            d="M50.3963 50.7295C40.9579 60.1679 31.5027 67.7795 23.8543 72.4585C20.0266 74.8002 16.6758 76.3922 14.0206 77.1206C11.3222 77.8607 9.5341 77.6599 8.60369 76.7295C7.67328 75.7991 7.47245 74.011 8.21263 71.3126C8.94095 68.6574 10.533 65.3066 12.8747 61.4789C17.5537 53.8305 25.1653 44.3753 34.6037 34.9369C44.0421 25.4985 53.4973 17.8869 61.1457 13.2079C64.9734 10.8662 68.3242 9.27414 70.9794 8.54582C73.6778 7.80565 75.4659 8.00648 76.3963 8.93688C77.3267 9.86729 77.5275 11.6554 76.7874 14.3538C76.0591 17.009 74.467 20.3598 72.1253 24.1875C67.4463 31.8359 59.8347 41.2911 50.3963 50.7295Z"
            stroke="url(#paint1_linear_1_10062)" />
        <path
            d="M34.6035 50.7293C25.1651 41.2909 17.5535 31.8357 12.8745 24.1873C10.5328 20.3596 8.94073 17.0088 8.21241 14.3536C7.47224 11.6552 7.67307 9.86708 8.60347 8.93667C9.53388 8.00626 11.322 7.80543 14.0204 8.54561C16.6756 9.27392 20.0264 10.866 23.8541 13.2076C31.5025 17.8867 40.9577 25.4983 50.3961 34.9367C59.8345 44.3751 67.446 53.8303 72.1251 61.4787C74.4668 65.3063 76.0588 68.6572 76.7872 71.3124C77.5273 74.0108 77.3265 75.7989 76.3961 76.7293C75.4657 77.6597 73.6776 77.8605 70.9792 77.1203C68.324 76.392 64.9731 74.8 61.1455 72.4583C53.4971 67.7792 44.0419 60.1677 34.6035 50.7293Z"
            stroke="url(#paint2_linear_1_10062)" />
    </g>
    <defs>
        <linearGradient id="paint0_linear_1_10062" x1="73.3407" y1="1.37698" x2="90.6043" y2="23.8112"
            gradientUnits="userSpaceOnUse">
            <stop stop-color="#69C9FF" />
            <stop offset="1" stop-color="#88F1BB" />
        </linearGradient>
        <linearGradient id="paint1_linear_1_10062" x1="12.4999" y1="61.8335" x2="8.82011" y2="48.3482"
            gradientUnits="userSpaceOnUse">
            <stop stop-color="#69C9FF" stop-opacity="0.15" />
            <stop offset="1" stop-color="#88F1BB" />
        </linearGradient>
        <linearGradient id="paint2_linear_1_10062" x1="11" y1="12.3334" x2="22.9941" y2="2.46678"
            gradientUnits="userSpaceOnUse">
            <stop stop-color="#69C9FF" />
            <stop offset="1" stop-color="#88F1BB" stop-opacity="0.32" />
        </linearGradient>
        <clipPath id="clip0_1_10062">
            <rect width="84.9997" height="84.9997" fill="white" transform="translate(0 0.333252)" />
        </clipPath>
    </defs>
</svg>